<?xml version="1.0" encoding="UTF-8" standalone="no"?>
<!-- Created with Inkscape (http://www.inkscape.org/) -->

<svg
   width="106.54577mm"
   height="29.975086mm"
   viewBox="0 0 106.54577 29.975086"
   version="1.1"
   id="svg3687"
   inkscape:version="1.2.1 (9c6d41e410, 2022-07-14, custom)"
   sodipodi:docname="denktmit-logo-white-transparent-highlighted.svg"
   xmlns:inkscape="http://www.inkscape.org/namespaces/inkscape"
   xmlns:sodipodi="http://sodipodi.sourceforge.net/DTD/sodipodi-0.dtd"
   xmlns="http://www.w3.org/2000/svg"
   xmlns:svg="http://www.w3.org/2000/svg">
  <sodipodi:namedview
     id="namedview3689"
     pagecolor="#ffffff"
     bordercolor="#999999"
     borderopacity="1"
     inkscape:showpageshadow="0"
     inkscape:pageopacity="0"
     inkscape:pagecheckerboard="0"
     inkscape:deskcolor="#d1d1d1"
     inkscape:document-units="mm"
     showgrid="false"
     inkscape:zoom="2.0277288"
     inkscape:cx="634.45369"
     inkscape:cy="159.29152"
     inkscape:window-width="5120"
     inkscape:window-height="1373"
     inkscape:window-x="0"
     inkscape:window-y="0"
     inkscape:window-maximized="1"
     inkscape:current-layer="layer1" />
  <defs
     id="defs3684">
    <mask
       id="mask-0">
      <g
         filter="url(#filter-remove-color)"
         id="g244">
        <rect
           x="-84.189003"
           y="-59.527599"
           width="1010.268"
           height="714.33118"
           fill="#000000"
           fill-opacity="0.300003"
           id="rect242" />
      </g>
    </mask>
    <filter
       id="filter-remove-color"
       x="0"
       y="0"
       width="1"
       height="1">
      <feColorMatrix
         color-interpolation-filters="sRGB"
         values="0 0 0 0 1 0 0 0 0 1 0 0 0 0 1 0 0 0 1 0"
         id="feColorMatrix2" />
    </filter>
    <clipPath
       id="clip-1">
      <rect
         x="0"
         y="0"
         width="35"
         height="36"
         id="rect247" />
    </clipPath>
    <clipPath
       id="clipPath2639">
      <rect
         x="0"
         y="0"
         width="35"
         height="36"
         id="rect2637" />
    </clipPath>
    <mask
       id="mask-1">
      <g
         filter="url(#filter-remove-color)"
         id="g255">
        <rect
           x="-84.189003"
           y="-59.527599"
           width="1010.268"
           height="714.33118"
           fill="#000000"
           fill-opacity="0.300003"
           id="rect253" />
      </g>
    </mask>
    <filter
       id="filter2646"
       x="0"
       y="0"
       width="1"
       height="1">
      <feColorMatrix
         color-interpolation-filters="sRGB"
         values="0 0 0 0 1 0 0 0 0 1 0 0 0 0 1 0 0 0 1 0"
         id="feColorMatrix2644" />
    </filter>
    <clipPath
       id="clip-2">
      <rect
         x="0"
         y="0"
         width="34"
         height="36"
         id="rect258" />
    </clipPath>
    <clipPath
       id="clipPath2652">
      <rect
         x="0"
         y="0"
         width="34"
         height="36"
         id="rect2650" />
    </clipPath>
    <mask
       id="mask-2">
      <g
         filter="url(#filter-remove-color)"
         id="g266">
        <rect
           x="-84.189003"
           y="-59.527599"
           width="1010.268"
           height="714.33118"
           fill="#000000"
           fill-opacity="0.300003"
           id="rect264" />
      </g>
    </mask>
    <filter
       id="filter2659"
       x="0"
       y="0"
       width="1"
       height="1">
      <feColorMatrix
         color-interpolation-filters="sRGB"
         values="0 0 0 0 1 0 0 0 0 1 0 0 0 0 1 0 0 0 1 0"
         id="feColorMatrix2657" />
    </filter>
    <clipPath
       id="clip-3">
      <rect
         x="0"
         y="0"
         width="33"
         height="49"
         id="rect269" />
    </clipPath>
    <clipPath
       id="clipPath2665">
      <rect
         x="0"
         y="0"
         width="33"
         height="49"
         id="rect2663" />
    </clipPath>
    <mask
       id="mask-3">
      <g
         filter="url(#filter-remove-color)"
         id="g277">
        <rect
           x="-84.189003"
           y="-59.527599"
           width="1010.268"
           height="714.33118"
           fill="#000000"
           fill-opacity="0.300003"
           id="rect275" />
      </g>
    </mask>
    <filter
       id="filter2672"
       x="0"
       y="0"
       width="1"
       height="1">
      <feColorMatrix
         color-interpolation-filters="sRGB"
         values="0 0 0 0 1 0 0 0 0 1 0 0 0 0 1 0 0 0 1 0"
         id="feColorMatrix2670" />
    </filter>
    <clipPath
       id="clip-4">
      <rect
         x="0"
         y="0"
         width="27"
         height="47"
         id="rect280" />
    </clipPath>
    <clipPath
       id="clipPath2678">
      <rect
         x="0"
         y="0"
         width="27"
         height="47"
         id="rect2676" />
    </clipPath>
    <mask
       id="mask-4">
      <g
         filter="url(#filter-remove-color)"
         id="g288">
        <rect
           x="-84.189003"
           y="-59.527599"
           width="1010.268"
           height="714.33118"
           fill="#000000"
           fill-opacity="0.300003"
           id="rect286" />
      </g>
    </mask>
    <filter
       id="filter2685"
       x="0"
       y="0"
       width="1"
       height="1">
      <feColorMatrix
         color-interpolation-filters="sRGB"
         values="0 0 0 0 1 0 0 0 0 1 0 0 0 0 1 0 0 0 1 0"
         id="feColorMatrix2683" />
    </filter>
    <clipPath
       id="clip-5">
      <rect
         x="0"
         y="0"
         width="56"
         height="49"
         id="rect291" />
    </clipPath>
    <clipPath
       id="clipPath2691">
      <rect
         x="0"
         y="0"
         width="56"
         height="49"
         id="rect2689" />
    </clipPath>
    <mask
       id="mask-5">
      <g
         filter="url(#filter-remove-color)"
         id="g299">
        <rect
           x="-84.189003"
           y="-59.527599"
           width="1010.268"
           height="714.33118"
           fill="#000000"
           fill-opacity="0.300003"
           id="rect297" />
      </g>
    </mask>
    <filter
       id="filter2698"
       x="0"
       y="0"
       width="1"
       height="1">
      <feColorMatrix
         color-interpolation-filters="sRGB"
         values="0 0 0 0 1 0 0 0 0 1 0 0 0 0 1 0 0 0 1 0"
         id="feColorMatrix2696" />
    </filter>
    <clipPath
       id="clip-6">
      <rect
         x="0"
         y="0"
         width="13"
         height="51"
         id="rect302" />
    </clipPath>
    <clipPath
       id="clipPath2704">
      <rect
         x="0"
         y="0"
         width="13"
         height="51"
         id="rect2702" />
    </clipPath>
    <mask
       id="mask-6">
      <g
         filter="url(#filter-remove-color)"
         id="g310">
        <rect
           x="-84.189003"
           y="-59.527599"
           width="1010.268"
           height="714.33118"
           fill="#000000"
           fill-opacity="0.300003"
           id="rect308" />
      </g>
    </mask>
    <filter
       id="filter2711"
       x="0"
       y="0"
       width="1"
       height="1">
      <feColorMatrix
         color-interpolation-filters="sRGB"
         values="0 0 0 0 1 0 0 0 0 1 0 0 0 0 1 0 0 0 1 0"
         id="feColorMatrix2709" />
    </filter>
    <clipPath
       id="clip-7">
      <rect
         x="0"
         y="0"
         width="27"
         height="47"
         id="rect313" />
    </clipPath>
    <clipPath
       id="clipPath2717">
      <rect
         x="0"
         y="0"
         width="27"
         height="47"
         id="rect2715" />
    </clipPath>
    <mask
       id="mask-7">
      <g
         filter="url(#filter-remove-color)"
         id="g321">
        <rect
           x="-84.189003"
           y="-59.527599"
           width="1010.268"
           height="714.33118"
           fill="#000000"
           fill-opacity="0.300003"
           id="rect319" />
      </g>
    </mask>
    <filter
       id="filter2724"
       x="0"
       y="0"
       width="1"
       height="1">
      <feColorMatrix
         color-interpolation-filters="sRGB"
         values="0 0 0 0 1 0 0 0 0 1 0 0 0 0 1 0 0 0 1 0"
         id="feColorMatrix2722" />
    </filter>
    <clipPath
       id="clip-8">
      <rect
         x="0"
         y="0"
         width="16"
         height="18"
         id="rect324" />
    </clipPath>
    <clipPath
       id="clipPath2730">
      <rect
         x="0"
         y="0"
         width="16"
         height="18"
         id="rect2728" />
    </clipPath>
    <mask
       id="mask-8">
      <g
         filter="url(#filter-remove-color)"
         id="g332">
        <rect
           x="-84.189003"
           y="-59.527599"
           width="1010.268"
           height="714.33118"
           fill="#000000"
           fill-opacity="0.300003"
           id="rect330" />
      </g>
    </mask>
    <filter
       id="filter2737"
       x="0"
       y="0"
       width="1"
       height="1">
      <feColorMatrix
         color-interpolation-filters="sRGB"
         values="0 0 0 0 1 0 0 0 0 1 0 0 0 0 1 0 0 0 1 0"
         id="feColorMatrix2735" />
    </filter>
    <clipPath
       id="clip-9">
      <rect
         x="0"
         y="0"
         width="7"
         height="24"
         id="rect335" />
    </clipPath>
    <clipPath
       id="clipPath2743">
      <rect
         x="0"
         y="0"
         width="7"
         height="24"
         id="rect2741" />
    </clipPath>
    <mask
       id="mask-9">
      <g
         filter="url(#filter-remove-color)"
         id="g343">
        <rect
           x="-84.189003"
           y="-59.527599"
           width="1010.268"
           height="714.33118"
           fill="#000000"
           fill-opacity="0.300003"
           id="rect341" />
      </g>
    </mask>
    <filter
       id="filter2750"
       x="0"
       y="0"
       width="1"
       height="1">
      <feColorMatrix
         color-interpolation-filters="sRGB"
         values="0 0 0 0 1 0 0 0 0 1 0 0 0 0 1 0 0 0 1 0"
         id="feColorMatrix2748" />
    </filter>
    <clipPath
       id="clip-10">
      <rect
         x="0"
         y="0"
         width="16"
         height="18"
         id="rect346" />
    </clipPath>
    <clipPath
       id="clipPath2756">
      <rect
         x="0"
         y="0"
         width="16"
         height="18"
         id="rect2754" />
    </clipPath>
    <mask
       id="mask-10">
      <g
         filter="url(#filter-remove-color)"
         id="g354">
        <rect
           x="-84.189003"
           y="-59.527599"
           width="1010.268"
           height="714.33118"
           fill="#000000"
           fill-opacity="0.300003"
           id="rect352" />
      </g>
    </mask>
    <filter
       id="filter2763"
       x="0"
       y="0"
       width="1"
       height="1">
      <feColorMatrix
         color-interpolation-filters="sRGB"
         values="0 0 0 0 1 0 0 0 0 1 0 0 0 0 1 0 0 0 1 0"
         id="feColorMatrix2761" />
    </filter>
    <clipPath
       id="clip-11">
      <rect
         x="0"
         y="0"
         width="13"
         height="24"
         id="rect357" />
    </clipPath>
    <clipPath
       id="clipPath2769">
      <rect
         x="0"
         y="0"
         width="13"
         height="24"
         id="rect2767" />
    </clipPath>
    <mask
       id="mask-11">
      <g
         filter="url(#filter-remove-color)"
         id="g365">
        <rect
           x="-84.189003"
           y="-59.527599"
           width="1010.268"
           height="714.33118"
           fill="#000000"
           fill-opacity="0.300003"
           id="rect363" />
      </g>
    </mask>
    <filter
       id="filter2776"
       x="0"
       y="0"
       width="1"
       height="1">
      <feColorMatrix
         color-interpolation-filters="sRGB"
         values="0 0 0 0 1 0 0 0 0 1 0 0 0 0 1 0 0 0 1 0"
         id="feColorMatrix2774" />
    </filter>
    <clipPath
       id="clip-12">
      <rect
         x="0"
         y="0"
         width="15"
         height="18"
         id="rect368" />
    </clipPath>
    <clipPath
       id="clipPath2782">
      <rect
         x="0"
         y="0"
         width="15"
         height="18"
         id="rect2780" />
    </clipPath>
    <mask
       id="mask-12">
      <g
         filter="url(#filter-remove-color)"
         id="g376">
        <rect
           x="-84.189003"
           y="-59.527599"
           width="1010.268"
           height="714.33118"
           fill="#000000"
           fill-opacity="0.300003"
           id="rect374" />
      </g>
    </mask>
    <filter
       id="filter2789"
       x="0"
       y="0"
       width="1"
       height="1">
      <feColorMatrix
         color-interpolation-filters="sRGB"
         values="0 0 0 0 1 0 0 0 0 1 0 0 0 0 1 0 0 0 1 0"
         id="feColorMatrix2787" />
    </filter>
    <clipPath
       id="clip-13">
      <rect
         x="0"
         y="0"
         width="15"
         height="18"
         id="rect379" />
    </clipPath>
    <clipPath
       id="clipPath2795">
      <rect
         x="0"
         y="0"
         width="15"
         height="18"
         id="rect2793" />
    </clipPath>
    <mask
       id="mask-13">
      <g
         filter="url(#filter-remove-color)"
         id="g387">
        <rect
           x="-84.189003"
           y="-59.527599"
           width="1010.268"
           height="714.33118"
           fill="#000000"
           fill-opacity="0.300003"
           id="rect385" />
      </g>
    </mask>
    <filter
       id="filter2802"
       x="0"
       y="0"
       width="1"
       height="1">
      <feColorMatrix
         color-interpolation-filters="sRGB"
         values="0 0 0 0 1 0 0 0 0 1 0 0 0 0 1 0 0 0 1 0"
         id="feColorMatrix2800" />
    </filter>
    <clipPath
       id="clip-14">
      <rect
         x="0"
         y="0"
         width="16"
         height="24"
         id="rect390" />
    </clipPath>
    <clipPath
       id="clipPath2808">
      <rect
         x="0"
         y="0"
         width="16"
         height="24"
         id="rect2806" />
    </clipPath>
    <mask
       id="mask-14">
      <g
         filter="url(#filter-remove-color)"
         id="g398">
        <rect
           x="-84.189003"
           y="-59.527599"
           width="1010.268"
           height="714.33118"
           fill="#000000"
           fill-opacity="0.300003"
           id="rect396" />
      </g>
    </mask>
    <filter
       id="filter2815"
       x="0"
       y="0"
       width="1"
       height="1">
      <feColorMatrix
         color-interpolation-filters="sRGB"
         values="0 0 0 0 1 0 0 0 0 1 0 0 0 0 1 0 0 0 1 0"
         id="feColorMatrix2813" />
    </filter>
    <clipPath
       id="clip-15">
      <rect
         x="0"
         y="0"
         width="17"
         height="24"
         id="rect401" />
    </clipPath>
    <clipPath
       id="clipPath2821">
      <rect
         x="0"
         y="0"
         width="17"
         height="24"
         id="rect2819" />
    </clipPath>
    <mask
       id="mask-15">
      <g
         filter="url(#filter-remove-color)"
         id="g409">
        <rect
           x="-84.189003"
           y="-59.527599"
           width="1010.268"
           height="714.33118"
           fill="#000000"
           fill-opacity="0.300003"
           id="rect407" />
      </g>
    </mask>
    <filter
       id="filter2828"
       x="0"
       y="0"
       width="1"
       height="1">
      <feColorMatrix
         color-interpolation-filters="sRGB"
         values="0 0 0 0 1 0 0 0 0 1 0 0 0 0 1 0 0 0 1 0"
         id="feColorMatrix2826" />
    </filter>
    <clipPath
       id="clip-16">
      <rect
         x="0"
         y="0"
         width="7"
         height="24"
         id="rect412" />
    </clipPath>
    <clipPath
       id="clipPath2834">
      <rect
         x="0"
         y="0"
         width="7"
         height="24"
         id="rect2832" />
    </clipPath>
    <mask
       id="mask-16">
      <g
         filter="url(#filter-remove-color)"
         id="g420">
        <rect
           x="-84.189003"
           y="-59.527599"
           width="1010.268"
           height="714.33118"
           fill="#000000"
           fill-opacity="0.300003"
           id="rect418" />
      </g>
    </mask>
    <filter
       id="filter2841"
       x="0"
       y="0"
       width="1"
       height="1">
      <feColorMatrix
         color-interpolation-filters="sRGB"
         values="0 0 0 0 1 0 0 0 0 1 0 0 0 0 1 0 0 0 1 0"
         id="feColorMatrix2839" />
    </filter>
    <clipPath
       id="clip-17">
      <rect
         x="0"
         y="0"
         width="17"
         height="24"
         id="rect423" />
    </clipPath>
    <clipPath
       id="clipPath2847">
      <rect
         x="0"
         y="0"
         width="17"
         height="24"
         id="rect2845" />
    </clipPath>
    <mask
       id="mask-17">
      <g
         filter="url(#filter-remove-color)"
         id="g431">
        <rect
           x="-84.189003"
           y="-59.527599"
           width="1010.268"
           height="714.33118"
           fill="#000000"
           fill-opacity="0.300003"
           id="rect429" />
      </g>
    </mask>
    <filter
       id="filter2854"
       x="0"
       y="0"
       width="1"
       height="1">
      <feColorMatrix
         color-interpolation-filters="sRGB"
         values="0 0 0 0 1 0 0 0 0 1 0 0 0 0 1 0 0 0 1 0"
         id="feColorMatrix2852" />
    </filter>
    <clipPath
       id="clip-18">
      <rect
         x="0"
         y="0"
         width="7"
         height="24"
         id="rect434" />
    </clipPath>
    <clipPath
       id="clipPath2860">
      <rect
         x="0"
         y="0"
         width="7"
         height="24"
         id="rect2858" />
    </clipPath>
    <mask
       id="mask-18">
      <g
         filter="url(#filter-remove-color)"
         id="g442">
        <rect
           x="-84.189003"
           y="-59.527599"
           width="1010.268"
           height="714.33118"
           fill="#000000"
           fill-opacity="0.300003"
           id="rect440" />
      </g>
    </mask>
    <filter
       id="filter2867"
       x="0"
       y="0"
       width="1"
       height="1">
      <feColorMatrix
         color-interpolation-filters="sRGB"
         values="0 0 0 0 1 0 0 0 0 1 0 0 0 0 1 0 0 0 1 0"
         id="feColorMatrix2865" />
    </filter>
    <clipPath
       id="clip-19">
      <rect
         x="0"
         y="0"
         width="13"
         height="23"
         id="rect445" />
    </clipPath>
    <clipPath
       id="clipPath2873">
      <rect
         x="0"
         y="0"
         width="13"
         height="23"
         id="rect2871" />
    </clipPath>
    <mask
       id="mask-19">
      <g
         filter="url(#filter-remove-color)"
         id="g453">
        <rect
           x="-84.189003"
           y="-59.527599"
           width="1010.268"
           height="714.33118"
           fill="#000000"
           fill-opacity="0.300003"
           id="rect451" />
      </g>
    </mask>
    <filter
       id="filter2880"
       x="0"
       y="0"
       width="1"
       height="1">
      <feColorMatrix
         color-interpolation-filters="sRGB"
         values="0 0 0 0 1 0 0 0 0 1 0 0 0 0 1 0 0 0 1 0"
         id="feColorMatrix2878" />
    </filter>
    <clipPath
       id="clip-20">
      <rect
         x="0"
         y="0"
         width="15"
         height="18"
         id="rect456" />
    </clipPath>
    <clipPath
       id="clipPath2886">
      <rect
         x="0"
         y="0"
         width="15"
         height="18"
         id="rect2884" />
    </clipPath>
    <mask
       id="mask-20">
      <g
         filter="url(#filter-remove-color)"
         id="g464">
        <rect
           x="-84.189003"
           y="-59.527599"
           width="1010.268"
           height="714.33118"
           fill="#000000"
           fill-opacity="0.300003"
           id="rect462" />
      </g>
    </mask>
    <filter
       id="filter2893"
       x="0"
       y="0"
       width="1"
       height="1">
      <feColorMatrix
         color-interpolation-filters="sRGB"
         values="0 0 0 0 1 0 0 0 0 1 0 0 0 0 1 0 0 0 1 0"
         id="feColorMatrix2891" />
    </filter>
    <clipPath
       id="clip-21">
      <rect
         x="0"
         y="0"
         width="6"
         height="24"
         id="rect467" />
    </clipPath>
    <clipPath
       id="clipPath2899">
      <rect
         x="0"
         y="0"
         width="6"
         height="24"
         id="rect2897" />
    </clipPath>
    <mask
       id="mask-21">
      <g
         filter="url(#filter-remove-color)"
         id="g475">
        <rect
           x="-84.189003"
           y="-59.527599"
           width="1010.268"
           height="714.33118"
           fill="#000000"
           fill-opacity="0.300003"
           id="rect473" />
      </g>
    </mask>
    <filter
       id="filter2906"
       x="0"
       y="0"
       width="1"
       height="1">
      <feColorMatrix
         color-interpolation-filters="sRGB"
         values="0 0 0 0 1 0 0 0 0 1 0 0 0 0 1 0 0 0 1 0"
         id="feColorMatrix2904" />
    </filter>
    <clipPath
       id="clip-22">
      <rect
         x="0"
         y="0"
         width="13"
         height="24"
         id="rect478" />
    </clipPath>
    <clipPath
       id="clipPath2912">
      <rect
         x="0"
         y="0"
         width="13"
         height="24"
         id="rect2910" />
    </clipPath>
    <mask
       id="mask-22">
      <g
         filter="url(#filter-remove-color)"
         id="g486">
        <rect
           x="-84.189003"
           y="-59.527599"
           width="1010.268"
           height="714.33118"
           fill="#000000"
           fill-opacity="0.300003"
           id="rect484" />
      </g>
    </mask>
    <filter
       id="filter2919"
       x="0"
       y="0"
       width="1"
       height="1">
      <feColorMatrix
         color-interpolation-filters="sRGB"
         values="0 0 0 0 1 0 0 0 0 1 0 0 0 0 1 0 0 0 1 0"
         id="feColorMatrix2917" />
    </filter>
    <clipPath
       id="clip-23">
      <rect
         x="0"
         y="0"
         width="15"
         height="23"
         id="rect489" />
    </clipPath>
    <clipPath
       id="clipPath2925">
      <rect
         x="0"
         y="0"
         width="15"
         height="23"
         id="rect2923" />
    </clipPath>
    <mask
       id="mask-23">
      <g
         filter="url(#filter-remove-color)"
         id="g497">
        <rect
           x="-84.189003"
           y="-59.527599"
           width="1010.268"
           height="714.33118"
           fill="#000000"
           fill-opacity="0.300003"
           id="rect495" />
      </g>
    </mask>
    <filter
       id="filter2932"
       x="0"
       y="0"
       width="1"
       height="1">
      <feColorMatrix
         color-interpolation-filters="sRGB"
         values="0 0 0 0 1 0 0 0 0 1 0 0 0 0 1 0 0 0 1 0"
         id="feColorMatrix2930" />
    </filter>
    <clipPath
       id="clip-24">
      <rect
         x="0"
         y="0"
         width="11"
         height="18"
         id="rect500" />
    </clipPath>
    <clipPath
       id="clipPath2938">
      <rect
         x="0"
         y="0"
         width="11"
         height="18"
         id="rect2936" />
    </clipPath>
    <mask
       id="mask-24">
      <g
         filter="url(#filter-remove-color)"
         id="g508">
        <rect
           x="-84.189003"
           y="-59.527599"
           width="1010.268"
           height="714.33118"
           fill="#000000"
           fill-opacity="0.300003"
           id="rect506" />
      </g>
    </mask>
    <filter
       id="filter2945"
       x="0"
       y="0"
       width="1"
       height="1">
      <feColorMatrix
         color-interpolation-filters="sRGB"
         values="0 0 0 0 1 0 0 0 0 1 0 0 0 0 1 0 0 0 1 0"
         id="feColorMatrix2943" />
    </filter>
    <clipPath
       id="clip-25">
      <rect
         x="0"
         y="0"
         width="15"
         height="18"
         id="rect511" />
    </clipPath>
    <clipPath
       id="clipPath2951">
      <rect
         x="0"
         y="0"
         width="15"
         height="18"
         id="rect2949" />
    </clipPath>
    <mask
       id="mask-25">
      <g
         filter="url(#filter-remove-color)"
         id="g519">
        <rect
           x="-84.189003"
           y="-59.527599"
           width="1010.268"
           height="714.33118"
           fill="#000000"
           fill-opacity="0.300003"
           id="rect517" />
      </g>
    </mask>
    <filter
       id="filter2958"
       x="0"
       y="0"
       width="1"
       height="1">
      <feColorMatrix
         color-interpolation-filters="sRGB"
         values="0 0 0 0 1 0 0 0 0 1 0 0 0 0 1 0 0 0 1 0"
         id="feColorMatrix2956" />
    </filter>
    <clipPath
       id="clip-26">
      <rect
         x="0"
         y="0"
         width="6"
         height="24"
         id="rect522" />
    </clipPath>
    <clipPath
       id="clipPath2964">
      <rect
         x="0"
         y="0"
         width="6"
         height="24"
         id="rect2962" />
    </clipPath>
    <mask
       id="mask-26">
      <g
         filter="url(#filter-remove-color)"
         id="g530">
        <rect
           x="-84.189003"
           y="-59.527599"
           width="1010.268"
           height="714.33118"
           fill="#000000"
           fill-opacity="0.300003"
           id="rect528" />
      </g>
    </mask>
    <filter
       id="filter2971"
       x="0"
       y="0"
       width="1"
       height="1">
      <feColorMatrix
         color-interpolation-filters="sRGB"
         values="0 0 0 0 1 0 0 0 0 1 0 0 0 0 1 0 0 0 1 0"
         id="feColorMatrix2969" />
    </filter>
    <clipPath
       id="clip-27">
      <rect
         x="0"
         y="0"
         width="6"
         height="24"
         id="rect533" />
    </clipPath>
    <clipPath
       id="clipPath2977">
      <rect
         x="0"
         y="0"
         width="6"
         height="24"
         id="rect2975" />
    </clipPath>
    <mask
       id="mask-27">
      <g
         filter="url(#filter-remove-color)"
         id="g541">
        <rect
           x="-84.189003"
           y="-59.527599"
           width="1010.268"
           height="714.33118"
           fill="#000000"
           fill-opacity="0.300003"
           id="rect539" />
      </g>
    </mask>
    <filter
       id="filter2984"
       x="0"
       y="0"
       width="1"
       height="1">
      <feColorMatrix
         color-interpolation-filters="sRGB"
         values="0 0 0 0 1 0 0 0 0 1 0 0 0 0 1 0 0 0 1 0"
         id="feColorMatrix2982" />
    </filter>
    <clipPath
       id="clip-28">
      <rect
         x="0"
         y="0"
         width="17"
         height="18"
         id="rect544" />
    </clipPath>
    <clipPath
       id="clipPath2990">
      <rect
         x="0"
         y="0"
         width="17"
         height="18"
         id="rect2988" />
    </clipPath>
  </defs>
  <g
     inkscape:label="Ebene 1"
     inkscape:groupmode="layer"
     id="layer1"
     transform="translate(1886.8703,278.00873)">
    <path
       fill-rule="nonzero"
       fill="#ffffff"
       fill-opacity="1"
       d="m -1879.5502,-261.76442 c -0.3059,-0.44786 -0.4589,-0.9977 -0.4589,-1.64537 v -11.70369 c 0,-1.55304 0.7387,-2.33025 2.2173,-2.33025 h 3.1199 c 2.9862,0 5.2434,0.70279 6.7744,2.10977 1.5296,1.4056 2.2958,3.4575 2.2958,6.15707 0,2.63068 -0.7565,4.63572 -2.2682,6.01514 -1.5117,1.38079 -3.6849,2.06982 -6.5181,2.06982 h -3.8227 c -0.5884,0 -1.0349,-0.22463 -1.3395,-0.67249 m 5.1498,-1.94028 c 1.8396,0 3.1364,-0.42305 3.8902,-1.27193 0.7537,-0.84749 1.1313,-2.27376 1.1313,-4.28018 0,-1.37115 -0.1832,-2.46531 -0.5484,-3.27835 -0.3666,-0.81443 -0.9164,-1.39871 -1.6523,-1.75287 -0.7345,-0.35416 -1.7088,-0.53192 -2.9228,-0.53192 h -1.91 v 11.11525 z m 0,0"
       id="path634"
       style="stroke-width:0.352778" />
    <g
       mask="url(#mask-0)"
       id="g638"
       transform="matrix(0.35277777,0,0,0.35277777,-1927.8697,-416.45058)">
      <g
         id="use636"
         clip-path="url(#clip-1)"
         transform="translate(180,406)">
        <path
           fill-rule="nonzero"
           fill="#ffffff"
           fill-opacity="1"
           d="M 6.523438,30.347656 C 3.414062,27.421875 1.859375,23.316406 1.859375,18.039062 c 0,-2.992187 0.648437,-5.714843 1.941406,-8.175781 1.292969,-2.457031 3.1875,-4.425781 5.6875,-5.910156 2.5,-1.488281 5.375,-2.230469 8.621094,-2.230469 2.542969,0 4.789063,0.417969 6.734375,1.25 1.941406,0.832032 3.492188,1.976563 4.644531,3.429688 1.15625,1.453125 2.027344,3.089844 2.613281,4.90625 0.589844,1.816406 0.894532,3.792968 0.914063,5.929687 0,0.855469 -0.230469,1.527344 -0.6875,2.019531 -0.460937,0.492188 -1.128906,0.738282 -2.003906,0.738282 H 10.769531 c 0.277344,5.746094 3.238281,8.621094 8.878907,8.621094 2.78125,0 5.554687,-1.058594 8.335937,-3.171876 0.382813,-0.320312 0.8125,-0.480468 1.28125,-0.480468 0.363281,0 0.722656,0.09375 1.074219,0.285156 0.351562,0.195312 0.65625,0.441406 0.914062,0.738281 0.257813,0.300781 0.464844,0.648438 0.625,1.042969 0.160156,0.394531 0.238282,0.785156 0.238282,1.167969 0,0.109375 -0.0039,0.203125 -0.01563,0.289062 -0.0078,0.08594 -0.01953,0.175781 -0.03125,0.273438 -0.01172,0.09766 -0.03125,0.1875 -0.0625,0.273437 -0.03125,0.08594 -0.07031,0.171875 -0.113281,0.253906 -0.04297,0.08594 -0.08594,0.171876 -0.128906,0.257813 -0.04297,0.08594 -0.09375,0.171875 -0.160156,0.257813 -0.0625,0.08203 -0.132813,0.167968 -0.207031,0.253906 -0.07813,0.08594 -0.15625,0.160156 -0.242188,0.226562 C 27.800781,33.277344 23.667969,34.773438 18.75,34.773438 13.707031,34.75 9.632812,33.277344 6.523438,30.347656 m 18.960937,-14.9375 c -0.386719,-5.46875 -2.777344,-8.207031 -7.179687,-8.207031 -2.265626,0 -4.039063,0.792969 -5.324219,2.375 -1.28125,1.582031 -1.996094,3.523437 -2.148438,5.832031 z m 0,0"
           id="path4914" />
      </g>
    </g>
    <g
       mask="url(#mask-1)"
       id="g642"
       transform="matrix(0.35277777,0,0,0.35277777,-1927.8697,-416.45058)">
      <g
         id="use640"
         clip-path="url(#clip-2)"
         transform="translate(218,406)">
        <path
           fill-rule="nonzero"
           fill="#ffffff"
           fill-opacity="1"
           d="M 2.339844,33.042969 C 1.59375,32.144531 1.21875,30.851562 1.21875,29.164062 V 6.757812 c 0,-1.496093 0.394531,-2.628906 1.1875,-3.398437 0.789062,-0.769531 1.902344,-1.15625 3.332031,-1.15625 1.390625,0 2.464844,0.386719 3.222657,1.15625 C 9.71875,4.128906 10.097656,5.25 10.097656,6.722656 V 7.492188 C 12.023438,3.625 15.644531,1.691406 20.964844,1.691406 c 3.226562,0 5.894531,1.0625 8,3.191406 2.101562,2.125 3.15625,5.164063 3.15625,9.117188 v 15.164062 c 0,1.6875 -0.398438,2.980469 -1.1875,3.878907 -0.789063,0.894531 -1.921875,1.34375 -3.398438,1.34375 -1.386718,0 -2.457031,-0.449219 -3.203125,-1.34375 -0.75,-0.898438 -1.121093,-2.191407 -1.121093,-3.878907 V 14.0625 c 0,-2.09375 -0.542969,-3.703125 -1.621094,-4.824219 -1.078125,-1.121093 -2.453125,-1.679687 -4.117188,-1.679687 -2.011718,0 -3.734375,0.789062 -5.175781,2.371094 -1.445313,1.582031 -2.167969,3.621093 -2.167969,6.121093 v 13.113281 c 0,1.6875 -0.394531,2.980469 -1.183594,3.878907 -0.792968,0.894531 -1.921874,1.34375 -3.398437,1.34375 -1.390625,0 -2.457031,-0.449219 -3.207031,-1.34375"
           id="path4910" />
      </g>
    </g>
    <g
       mask="url(#mask-2)"
       id="g646"
       transform="matrix(0.35277777,0,0,0.35277777,-1927.8697,-416.45058)">
      <g
         id="use644"
         clip-path="url(#clip-3)"
         transform="translate(256,393)">
        <path
           fill-rule="nonzero"
           fill="#ffffff"
           fill-opacity="1"
           d="M 2.941406,46.023438 C 2.207031,45.117188 1.835938,43.808594 1.835938,42.097656 V 6.324219 c 0,-1.710938 0.378906,-3.019531 1.136718,-3.925781 0.761719,-0.910157 1.832032,-1.363282 3.222656,-1.363282 1.453126,0 2.574219,0.453125 3.367188,1.363282 0.789062,0.90625 1.183594,2.214843 1.183594,3.925781 V 29.117188 L 23.410156,16.035156 c 0.210938,-0.234375 0.429688,-0.433594 0.65625,-0.605468 0.226563,-0.171876 0.449219,-0.304688 0.671875,-0.402344 0.226563,-0.09375 0.457031,-0.171875 0.6875,-0.222656 0.238281,-0.05469 0.460938,-0.08203 0.675781,-0.08203 0.257813,0 0.507813,0.02734 0.753907,0.08203 0.246093,0.05078 0.480469,0.132812 0.703125,0.238281 0.226562,0.109375 0.4375,0.234375 0.644531,0.386719 0.203125,0.148437 0.386719,0.3125 0.558594,0.496093 0.171875,0.179688 0.332031,0.382813 0.480469,0.609375 0.148437,0.222656 0.273437,0.449219 0.371093,0.671875 0.09375,0.226563 0.167969,0.464844 0.222657,0.722657 0.05078,0.253906 0.07812,0.511718 0.07812,0.769531 0,0.917969 -0.339843,1.742187 -1.023437,2.46875 l -8.914063,8.910156 10.226563,10.992187 c 0.683594,0.773438 1.027344,1.59375 1.027344,2.472657 0,1.023437 -0.421875,1.921875 -1.265625,2.691406 -0.84375,0.769531 -1.824219,1.152344 -2.933594,1.152344 -0.277344,0 -0.558594,-0.02734 -0.832031,-0.07813 -0.277344,-0.05469 -0.550781,-0.144532 -0.820313,-0.273438 -0.265625,-0.128906 -0.535156,-0.292968 -0.800781,-0.5 C 24.3125,46.335938 24.0625,46.09375 23.824219,45.816406 L 10.746094,31.261719 v 10.835937 c 0,1.710938 -0.398438,3.019532 -1.199219,3.925782 -0.804687,0.910156 -1.941406,1.363281 -3.414063,1.363281 -1.390624,0 -2.453124,-0.453125 -3.191406,-1.363281"
           id="path4906" />
      </g>
    </g>
    <g
       mask="url(#mask-3)"
       id="g650"
       transform="matrix(0.35277777,0,0,0.35277777,-1927.8697,-416.45058)">
      <g
         id="use648"
         clip-path="url(#clip-4)"
         transform="translate(288,395)">
        <path
           fill-rule="nonzero"
           fill="#ffffff"
           fill-opacity="1"
           d="M 9.921875,42.96875 C 8.234375,41.160156 7.386719,38.429688 7.386719,34.777344 V 19.199219 H 4.726562 c -2.09375,0 -3.140624,-1.027344 -3.140624,-3.078125 0,-0.875 0.253906,-1.570313 0.753906,-2.085938 0.5,-0.511718 1.265625,-0.765625 2.292968,-0.765625 h 3.109376 l 0.863281,-7.40625 c 0.34375,-3.078125 1.785156,-4.617187 4.328125,-4.617187 2.265625,0 3.398437,1.550781 3.398437,4.648437 v 7.375 h 4.648438 c 2.007812,0 3.011719,1.003907 3.011719,3.011719 0,1.945312 -1.035157,2.917969 -3.109376,2.917969 h -4.550781 v 13.492187 c 0,2.269532 0.273438,3.90625 0.816407,4.921875 0.546874,1.015625 1.511718,1.523438 2.902343,1.523438 h 0.382813 l 2.117187,-0.09766 h 0.191407 c 0.855468,0 1.527343,0.3125 2.019531,0.929688 0.492187,0.621094 0.738281,1.347656 0.738281,2.179688 0,0.492187 -0.08203,0.925781 -0.242188,1.300781 -0.160156,0.371093 -0.359374,0.683593 -0.59375,0.929687 -0.234374,0.242188 -0.566406,0.453125 -0.992187,0.625 -0.429687,0.171875 -0.828125,0.304688 -1.203125,0.398438 -0.375,0.09766 -0.871094,0.167968 -1.488281,0.207031 -0.621094,0.04297 -1.148438,0.07031 -1.589844,0.08203 -0.433594,0.01172 -1.019531,0.01563 -1.746094,0.01563 H 16.972656 C 13.960938,45.6875 11.609375,44.773438 9.921875,42.96875"
           id="path4902" />
      </g>
    </g>
    <g
       mask="url(#mask-4)"
       id="g654"
       transform="matrix(0.35277777,0,0,0.35277777,-1927.8697,-416.45058)">
      <g
         id="use652"
         clip-path="url(#clip-5)"
         transform="translate(317,393)">
        <path
           fill-rule="nonzero"
           fill="#ffffff"
           fill-opacity="1"
           d="m 24.722656,44.230469 c -0.929687,-0.84375 -1.738281,-2.152344 -2.421875,-3.925781 L 10.984375,12.480469 v 30.996093 c 0,1.238282 -0.4375,2.203126 -1.3125,2.882813 -0.875,0.683594 -1.921875,1.027344 -3.140625,1.027344 -1.21875,0 -2.277344,-0.347657 -3.171875,-1.042969 C 2.460938,45.652344 2.011719,44.695312 2.011719,43.476562 L 1.976562,8.632812 c 0,-1.964843 0.753907,-3.585937 2.261719,-4.855468 1.507813,-1.273438 3.273438,-1.90625 5.304688,-1.90625 1.113281,0 2.171875,0.199218 3.175781,0.609375 1.003906,0.40625 1.964844,1.082031 2.882812,2.035156 C 16.519531,5.464844 17.25,6.644531 17.78125,8.054688 L 28.230469,33.476562 38.679688,8.054688 c 0.792968,-2.070313 1.929687,-3.621094 3.414062,-4.648438 1.488281,-1.023438 3.085938,-1.535156 4.792969,-1.535156 2.03125,0 3.800781,0.632812 5.304687,1.90625 1.507813,1.269531 2.261719,2.890625 2.261719,4.855468 v 34.84375 c 0,1.21875 -0.449219,2.175782 -1.347656,2.867188 -0.898438,0.695312 -1.953125,1.042969 -3.171875,1.042969 -1.21875,0 -2.273438,-0.34375 -3.15625,-1.027344 -0.890625,-0.679687 -1.332032,-1.644531 -1.332032,-2.882813 l 0.03125,-30.996093 -11.316406,27.824219 c -0.683594,1.75 -1.488281,3.054687 -2.417968,3.910156 -0.929688,0.855468 -2.097657,1.28125 -3.511719,1.28125 -1.410157,0 -2.578125,-0.421875 -3.507813,-1.265625"
           id="path4898" />
      </g>
    </g>
    <g
       mask="url(#mask-5)"
       id="g658"
       transform="matrix(0.35277777,0,0,0.35277777,-1927.8697,-416.45058)">
      <g
         id="use656"
         clip-path="url(#clip-6)"
         transform="translate(379,391)">
        <path
           fill-rule="nonzero"
           fill="#ffffff"
           fill-opacity="1"
           d="M 2.417969,9.480469 C 1.5,8.625 1.039062,7.503906 1.039062,6.113281 c 0,-1.390625 0.464844,-2.515625 1.394532,-3.382812 0.929687,-0.863281 2.152344,-1.296875 3.671875,-1.296875 1.496093,0 2.707031,0.433594 3.636719,1.296875 0.929687,0.867187 1.394531,1.992187 1.394531,3.382812 0,1.390625 -0.464844,2.511719 -1.394531,3.367188 -0.929688,0.855469 -2.152344,1.28125 -3.667969,1.28125 -1.519531,0 -2.738281,-0.425781 -3.65625,-1.28125 m 0.355469,38.5625 C 2,47.144531 1.617188,45.828125 1.617188,44.097656 V 22.492188 c 0,-1.707032 0.378906,-3.019532 1.136718,-3.925782 0.757813,-0.90625 1.832032,-1.363281 3.222656,-1.363281 1.453126,0 2.578126,0.457031 3.382813,1.363281 0.800781,0.90625 1.199219,2.21875 1.199219,3.925782 v 21.605468 c 0,1.710938 -0.378906,3.019532 -1.136719,3.929688 -0.757813,0.90625 -1.867187,1.359375 -3.316406,1.359375 -1.453125,0 -2.566407,-0.449219 -3.332031,-1.34375"
           id="path4894" />
      </g>
    </g>
    <g
       mask="url(#mask-6)"
       id="g662"
       transform="matrix(0.35277777,0,0,0.35277777,-1927.8697,-416.45058)">
      <g
         id="use660"
         clip-path="url(#clip-7)"
         transform="translate(392,395)">
        <path
           fill-rule="nonzero"
           fill="#ffffff"
           fill-opacity="1"
           d="m 10.164062,42.96875 c -1.6875,-1.808594 -2.53125,-4.539062 -2.53125,-8.191406 V 19.199219 H 4.96875 c -2.089844,0 -3.136719,-1.027344 -3.136719,-3.078125 0,-0.875 0.25,-1.570313 0.75,-2.085938 C 3.085938,13.523438 3.847656,13.269531 4.875,13.269531 h 3.109375 l 0.863281,-7.40625 c 0.34375,-3.078125 1.785156,-4.617187 4.328125,-4.617187 2.265625,0 3.398438,1.550781 3.398438,4.648437 v 7.375 h 4.648437 c 2.007813,0 3.011719,1.003907 3.011719,3.011719 0,1.945312 -1.035156,2.917969 -3.109375,2.917969 h -4.550781 v 13.492187 c 0,2.269532 0.273437,3.90625 0.816406,4.921875 0.546875,1.015625 1.511719,1.523438 2.902344,1.523438 h 0.382812 l 2.117188,-0.09766 h 0.191406 c 0.855469,0 1.527344,0.3125 2.019531,0.929688 0.492188,0.621094 0.738282,1.347656 0.738282,2.179688 0,0.492187 -0.08203,0.925781 -0.242188,1.300781 -0.160156,0.371093 -0.355469,0.683593 -0.59375,0.929687 -0.234375,0.242188 -0.5625,0.453125 -0.992188,0.625 -0.429687,0.171875 -0.828124,0.304688 -1.199218,0.398438 -0.375,0.09766 -0.875,0.167968 -1.492188,0.207031 -0.621094,0.04297 -1.148437,0.07031 -1.585937,0.08203 -0.4375,0.01172 -1.023438,0.01563 -1.746094,0.01563 H 17.214844 C 14.203125,45.6875 11.851562,44.773438 10.164062,42.96875"
           id="path4890" />
      </g>
    </g>
    <path
       fill-rule="nonzero"
       fill="#ffffff"
       fill-opacity="1"
       d="m -1886.8703,-261.86502 c 0,-0.0455 0,-0.0896 0.012,-0.13504 l 0.9495,-5.60862 c 0.068,-0.4079 0.3431,-0.61874 0.8254,-0.63389 h 1.9003 c 0.2784,0.022 0.4176,0.16536 0.4176,0.42994 0,0.0758 -0.011,0.14332 -0.034,0.20395 l -1.9899,5.60862 c -0.067,0.17363 -0.146,0.29765 -0.237,0.37344 -0.09,0.0744 -0.2108,0.11301 -0.361,0.11301 h -1.1989 c -0.1888,-0.008 -0.2839,-0.12541 -0.2839,-0.35141 m 1.1934,-11.0932 c -0.3349,-0.32384 -0.503,-0.7345 -0.503,-1.23197 0,-0.45337 0.164,-0.84612 0.4919,-1.18235 0.328,-0.33487 0.7442,-0.50299 1.2499,-0.50299 0.4823,0 0.8944,0.16261 1.2375,0.48645 0.3431,0.32384 0.5154,0.72347 0.5154,1.19889 0,0.48232 -0.164,0.88884 -0.492,1.22094 -0.3279,0.33211 -0.7482,0.49748 -1.2609,0.49748 -0.4906,0 -0.904,-0.16261 -1.2388,-0.48645"
       id="path664"
       style="stroke-width:0.352778" />
    <g
       mask="url(#mask-7)"
       id="g668"
       transform="matrix(0.35277777,0,0,0.35277777,-1927.8697,-416.45058)">
      <g
         id="use666"
         clip-path="url(#clip-8)"
         transform="translate(134,455)">
        <path
           fill-rule="nonzero"
           fill="#ffffff"
           fill-opacity="1"
           d="M 3.328125,14.316406 C 1.976562,12.964844 1.296875,11.121094 1.296875,8.792969 1.296875,7.804688 1.457031,6.867188 1.769531,5.984375 2.085938,5.101562 2.535156,4.320312 3.117188,3.636719 3.699219,2.953125 4.441406,2.410156 5.335938,2.007812 6.234375,1.605469 7.230469,1.402344 8.328125,1.402344 c 1.113281,0 2.101563,0.1875 2.960937,0.570312 0.859376,0.375 1.542969,0.894532 2.050782,1.554688 0.511718,0.660156 0.898437,1.398437 1.164062,2.21875 0.269532,0.820312 0.410156,1.714844 0.429688,2.6875 0,0.316406 -0.07813,0.582031 -0.234375,0.78125 C 14.546875,9.421875 14.3125,9.523438 14.003906,9.523438 H 4.25 c 0.039062,1.609374 0.472656,2.808593 1.296875,3.59375 0.824219,0.785156 1.90625,1.1875 3.246094,1.207031 0.796875,0 1.523437,-0.148438 2.183593,-0.441407 0.660157,-0.296874 1.332032,-0.699218 2.019532,-1.203124 0.101562,-0.06641 0.195312,-0.117188 0.285156,-0.152344 0.09375,-0.03516 0.1875,-0.05078 0.285156,-0.05078 0.164063,0 0.316406,0.04688 0.460938,0.140626 0.136718,0.08984 0.25,0.214843 0.332031,0.367187 0.08203,0.15625 0.125,0.320313 0.125,0.496094 0,0.164062 -0.03906,0.324219 -0.109375,0.480469 -0.07422,0.15625 -0.1875,0.296874 -0.34375,0.421874 C 12.527344,15.714844 10.714844,16.375 8.589844,16.375 6.4375,16.359375 4.679688,15.671875 3.328125,14.316406 M 12.402344,7.746094 C 12.316406,6.484375 11.945312,5.445312 11.296875,4.625 10.644531,3.804688 9.699219,3.394531 8.457031,3.394531 c -0.636719,0 -1.222656,0.125 -1.746093,0.371094 C 6.1875,4.015625 5.757812,4.347656 5.425781,4.773438 5.089844,5.191406 4.828125,5.65625 4.636719,6.160156 4.449219,6.664062 4.332031,7.195312 4.28125,7.746094 Z m 0,0"
           id="path4886" />
      </g>
    </g>
    <g
       mask="url(#mask-8)"
       id="g672"
       transform="matrix(0.35277777,0,0,0.35277777,-1927.8697,-416.45058)">
      <g
         id="use670"
         clip-path="url(#clip-9)"
         transform="translate(150,449)">
        <path
           fill-rule="nonzero"
           fill="#ffffff"
           fill-opacity="1"
           d="M 2.273438,3.976562 C 1.933594,3.660156 1.761719,3.246094 1.761719,2.730469 c 0,-0.515625 0.171875,-0.933594 0.511719,-1.25 C 2.609375,1.160156 3.058594,1 3.609375,1 c 0.546875,0 0.980469,0.160156 1.3125,0.480469 0.328125,0.316406 0.496094,0.734375 0.496094,1.25 0,0.515625 -0.167969,0.929687 -0.503907,1.246093 -0.335937,0.3125 -0.773437,0.472657 -1.316406,0.472657 -0.542968,0 -0.988281,-0.160157 -1.324218,-0.472657 m 0.277343,17.789063 c -0.285156,-0.25 -0.421875,-0.617187 -0.421875,-1.09375 V 9.105469 c 0,-0.457031 0.144532,-0.816407 0.441406,-1.078125 0.296876,-0.261719 0.644532,-0.394532 1.039063,-0.394532 0.390625,0 0.730469,0.132813 1.019531,0.394532 0.292969,0.261718 0.4375,0.621094 0.4375,1.078125 v 11.566406 c 0,0.457031 -0.148437,0.816406 -0.441406,1.078125 -0.296875,0.265625 -0.644531,0.394531 -1.042969,0.394531 -0.40625,0 -0.75,-0.125 -1.03125,-0.378906"
           id="path4882" />
      </g>
    </g>
    <g
       mask="url(#mask-9)"
       id="g676"
       transform="matrix(0.35277777,0,0,0.35277777,-1927.8697,-416.45058)">
      <g
         id="use674"
         clip-path="url(#clip-10)"
         transform="translate(157,455)">
        <path
           fill-rule="nonzero"
           fill="#ffffff"
           fill-opacity="1"
           d="M 2.414062,15.773438 C 2.128906,15.527344 1.984375,15.183594 1.984375,14.746094 V 3.015625 c 0,-0.433594 0.144531,-0.769531 0.4375,-1.007813 C 2.710938,1.769531 3.054688,1.648438 3.453125,1.648438 3.851562,1.648438 4.195312,1.765625 4.480469,2 4.765625,2.230469 4.910156,2.558594 4.910156,2.972656 V 4.007812 C 5.296875,3.164062 5.90625,2.515625 6.734375,2.070312 7.566406,1.625 8.535156,1.402344 9.640625,1.402344 c 0.746094,0 1.433594,0.109375 2.058594,0.328125 0.625,0.21875 1.183593,0.546875 1.671875,0.988281 0.492187,0.441406 0.871094,1.027344 1.140625,1.761719 0.273437,0.730469 0.410156,1.574219 0.410156,2.523437 v 7.742188 c 0,0.4375 -0.148437,0.78125 -0.445313,1.027344 -0.292968,0.246093 -0.640624,0.371093 -1.039062,0.371093 -0.398438,0 -0.738281,-0.125 -1.023438,-0.371093 C 12.125,15.527344 11.980469,15.183594 11.980469,14.746094 V 6.976562 C 11.980469,5.8125 11.703125,4.925781 11.136719,4.3125 10.574219,3.703125 9.8125,3.394531 8.851562,3.394531 c -1.074218,0 -1.992187,0.402344 -2.75,1.203125 C 5.347656,5.398438 4.949219,6.476562 4.910156,7.835938 v 6.910156 c 0,0.4375 -0.144531,0.78125 -0.4375,1.027344 -0.289062,0.246093 -0.632812,0.371093 -1.035156,0.371093 -0.394531,0 -0.738281,-0.125 -1.023438,-0.371093"
           id="path4878" />
      </g>
    </g>
    <g
       mask="url(#mask-10)"
       id="g680"
       transform="matrix(0.35277777,0,0,0.35277777,-1927.8697,-416.45058)">
      <g
         id="use678"
         clip-path="url(#clip-11)"
         transform="translate(172,449)">
        <path
           fill-rule="nonzero"
           fill="#ffffff"
           fill-opacity="1"
           d="m 5.113281,21.765625 c -0.292969,-0.253906 -0.4375,-0.605469 -0.4375,-1.0625 V 9.6875 H 2.914062 C 2.566406,9.6875 2.300781,9.597656 2.121094,9.417969 1.945312,9.238281 1.851562,9.011719 1.851562,8.742188 1.851562,8.480469 1.945312,8.253906 2.121094,8.0625 2.300781,7.875 2.566406,7.78125 2.914062,7.78125 H 4.675781 V 6.003906 c 0,-3.257812 1.460938,-4.886718 4.382813,-4.886718 h 1.789062 c 0.308594,0 0.554688,0.113281 0.734375,0.347656 0.179688,0.234375 0.269531,0.5 0.269531,0.800781 0,0.300781 -0.08594,0.558594 -0.261718,0.777344 -0.175782,0.21875 -0.421875,0.328125 -0.742188,0.328125 H 9.609375 c -0.398437,0 -0.707031,0.03125 -0.929687,0.09375 C 8.453125,3.527344 8.257812,3.671875 8.082031,3.894531 7.90625,4.117188 7.785156,4.441406 7.71875,4.863281 7.648438,5.285156 7.617188,5.855469 7.617188,6.574219 V 7.78125 h 2.3125 c 0.339843,0 0.597656,0.09375 0.769531,0.28125 0.175781,0.191406 0.265625,0.417969 0.265625,0.679688 0,0.28125 -0.08594,0.507812 -0.257813,0.683593 C 10.539062,9.601562 10.28125,9.6875 9.929688,9.6875 h -2.3125 v 11.015625 c 0,0.457031 -0.148438,0.808594 -0.4375,1.0625 -0.292969,0.253906 -0.636719,0.378906 -1.03125,0.378906 -0.402344,0 -0.746094,-0.125 -1.035157,-0.378906"
           id="path4874" />
      </g>
    </g>
    <g
       mask="url(#mask-11)"
       id="g684"
       transform="matrix(0.35277777,0,0,0.35277777,-1927.8697,-416.45058)">
      <g
         id="use682"
         clip-path="url(#clip-12)"
         transform="translate(183,455)">
        <path
           fill-rule="nonzero"
           fill="#ffffff"
           fill-opacity="1"
           d="M 2.96875,15.285156 C 2.019531,14.558594 1.542969,13.523438 1.542969,12.1875 c 0,-0.574219 0.0625,-1.074219 0.183593,-1.507812 C 1.847656,10.25 2.015625,9.875 2.230469,9.558594 2.441406,9.242188 2.746094,8.976562 3.144531,8.757812 3.542969,8.539062 3.96875,8.363281 4.417969,8.226562 4.867188,8.09375 5.449219,7.988281 6.164062,7.914062 6.875,7.84375 7.597656,7.792969 8.316406,7.769531 9.042969,7.746094 9.925781,7.730469 10.976562,7.730469 V 6.304688 c 0,-1.957032 -0.984374,-2.9375 -2.941406,-2.9375 C 7.460938,3.367188 6.875,3.433594 6.273438,3.5625 5.671875,3.695312 5.21875,3.816406 4.914062,3.933594 4.605469,4.050781 4.203125,4.214844 3.699219,4.429688 3.582031,4.476562 3.460938,4.5 3.335938,4.5 3.238281,4.5 3.144531,4.488281 3.058594,4.457031 2.96875,4.429688 2.886719,4.386719 2.8125,4.332031 2.730469,4.28125 2.664062,4.21875 2.601562,4.144531 2.535156,4.070312 2.484375,3.996094 2.4375,3.914062 2.394531,3.832031 2.363281,3.746094 2.335938,3.65625 2.3125,3.570312 2.300781,3.484375 2.300781,3.394531 c 0,-0.164062 0.039063,-0.3125 0.117188,-0.441406 C 2.496094,2.820312 2.617188,2.710938 2.78125,2.625 4.285156,1.808594 6.070312,1.402344 8.136719,1.402344 c 1.785156,0 3.191406,0.417968 4.222656,1.25 1.027344,0.835937 1.539063,2.136718 1.539063,3.902344 v 8.207031 c 0,0.4375 -0.144532,0.777343 -0.4375,1.027343 -0.289063,0.246094 -0.628907,0.367188 -1.015626,0.367188 -0.253906,0 -0.484374,-0.04687 -0.691406,-0.152344 -0.210937,-0.101562 -0.382812,-0.257812 -0.523437,-0.464844 -0.140625,-0.207031 -0.210938,-0.457031 -0.210938,-0.75 V 13.714844 C 10.15625,15.488281 8.703125,16.375 6.667969,16.375 5.152344,16.375 3.921875,16.011719 2.96875,15.285156 M 9.753906,13.144531 C 10.558594,12.273438 10.960938,11.160156 10.960938,9.8125 V 9.40625 C 10.027344,9.40625 9.25,9.417969 8.632812,9.441406 8.011719,9.46875 7.433594,9.515625 6.90625,9.589844 6.375,9.660156 5.964844,9.753906 5.664062,9.871094 c -0.300781,0.117187 -0.5625,0.277344 -0.78125,0.480468 -0.21875,0.203126 -0.363281,0.441407 -0.441406,0.71875 -0.078125,0.277344 -0.117187,0.609376 -0.117187,1 0,0.8125 0.238281,1.414063 0.710937,1.800782 0.476563,0.390625 1.117188,0.582031 1.921875,0.582031 1.058594,0 1.988281,-0.433594 2.796875,-1.308594"
           id="path4870" />
      </g>
    </g>
    <g
       mask="url(#mask-12)"
       id="g688"
       transform="matrix(0.35277777,0,0,0.35277777,-1927.8697,-416.45058)">
      <g
         id="use686"
         clip-path="url(#clip-13)"
         transform="translate(198,455)">
        <path
           fill-rule="nonzero"
           fill="#ffffff"
           fill-opacity="1"
           d="M 5.25,15.367188 C 4.175781,14.691406 3.359375,13.789062 2.808594,12.660156 2.253906,11.527344 1.976562,10.269531 1.976562,8.882812 1.976562,7.503906 2.269531,6.25 2.851562,5.121094 3.433594,3.992188 4.273438,3.089844 5.375,2.414062 6.476562,1.738281 7.738281,1.402344 9.167969,1.402344 c 0.851562,0 1.625,0.113281 2.320312,0.34375 0.695313,0.226562 1.253907,0.5 1.679688,0.820312 0.371093,0.273438 0.550781,0.578125 0.550781,0.917969 0,0.152344 -0.03906,0.296875 -0.121094,0.429687 -0.08203,0.128907 -0.195312,0.230469 -0.335937,0.304688 -0.140625,0.074219 -0.296875,0.109375 -0.472657,0.109375 -0.210937,0 -0.421874,-0.058594 -0.625,-0.175781 -0.84375,-0.515625 -1.78125,-0.769532 -2.808593,-0.769532 -1.347657,0 -2.425781,0.5 -3.238281,1.503907 -0.808594,1.003906 -1.214844,2.339843 -1.214844,4.007812 0,1.019531 0.15625,1.9375 0.464844,2.753907 0.3125,0.816406 0.800781,1.472656 1.464843,1.980468 0.664063,0.5 1.457031,0.753906 2.378907,0.753906 1.277343,0 2.34375,-0.296874 3.1875,-0.886718 0.105468,-0.07813 0.214843,-0.136719 0.328124,-0.167969 0.109376,-0.03516 0.21875,-0.05078 0.324219,-0.05078 0.128907,0 0.242188,0.02344 0.347657,0.06641 0.109374,0.04297 0.203124,0.105469 0.285156,0.179688 0.08203,0.07812 0.148437,0.171874 0.191406,0.285156 0.04297,0.109375 0.0625,0.226562 0.0625,0.339844 0,0.15625 -0.03906,0.316406 -0.121094,0.480468 -0.08203,0.167969 -0.210937,0.320313 -0.386718,0.46875 C 12.402344,15.949219 10.921875,16.375 8.992188,16.375 7.574219,16.375 6.328125,16.039062 5.25,15.367188"
           id="path4866" />
      </g>
    </g>
    <g
       mask="url(#mask-13)"
       id="g692"
       transform="matrix(0.35277777,0,0,0.35277777,-1927.8697,-416.45058)">
      <g
         id="use690"
         clip-path="url(#clip-14)"
         transform="translate(213,449)">
        <path
           fill-rule="nonzero"
           fill="#ffffff"
           fill-opacity="1"
           d="M 1.9375,21.773438 C 1.652344,21.527344 1.507812,21.179688 1.507812,20.730469 V 2.671875 c 0,-0.425781 0.148438,-0.761719 0.4375,-1.003906 0.292969,-0.242188 0.636719,-0.363281 1.03125,-0.363281 0.402344,0 0.746094,0.121093 1.035157,0.363281 0.292969,0.242187 0.4375,0.578125 0.4375,1.003906 V 9.773438 C 4.867188,9.039062 5.496094,8.457031 6.339844,8.035156 7.183594,7.613281 8.144531,7.402344 9.222656,7.402344 c 0.707032,0 1.367188,0.105468 1.980469,0.320312 0.609375,0.210938 1.160156,0.535156 1.648437,0.96875 0.492188,0.429688 0.878907,1.011719 1.164063,1.738282 0.289063,0.726562 0.429687,1.566406 0.429687,2.515624 v 7.785157 c 0,0.449219 -0.144531,0.796875 -0.4375,1.042969 -0.289062,0.246093 -0.636718,0.371093 -1.042968,0.371093 -0.402344,0 -0.742188,-0.125 -1.027344,-0.371093 -0.289062,-0.246094 -0.429688,-0.59375 -0.429688,-1.042969 v -7.871094 c 0,-1.125 -0.273437,-1.96875 -0.816406,-2.53125 -0.542968,-0.5625 -1.277344,-0.84375 -2.195312,-0.84375 -1.128906,0 -2.082032,0.390625 -2.867188,1.179687 -0.785156,0.78125 -1.179687,1.859376 -1.179687,3.230469 v 6.835938 c 0,0.449219 -0.144531,0.796875 -0.4375,1.042969 -0.289063,0.246093 -0.640625,0.371093 -1.046875,0.371093 -0.398438,0 -0.742188,-0.125 -1.027344,-0.371093"
           id="path4862" />
      </g>
    </g>
    <g
       mask="url(#mask-14)"
       id="g696"
       transform="matrix(0.35277777,0,0,0.35277777,-1927.8697,-416.45058)">
      <g
         id="use694"
         clip-path="url(#clip-15)"
         transform="translate(238,449)">
        <path
           fill-rule="nonzero"
           fill="#ffffff"
           fill-opacity="1"
           d="M 4.566406,21.757812 C 3.757812,21.34375 3.101562,20.789062 2.59375,20.085938 2.085938,19.378906 1.695312,18.578125 1.421875,17.675781 1.152344,16.773438 1.015625,15.8125 1.015625,14.792969 c 0,-2.171875 0.582031,-3.949219 1.746094,-5.324219 1.164062,-1.378906 2.746093,-2.066406 4.742187,-2.066406 2.195313,0 3.761719,0.847656 4.703125,2.546875 V 2.671875 c 0,-0.433594 0.144531,-0.773437 0.433594,-1.011719 0.292969,-0.234375 0.636719,-0.355468 1.035156,-0.355468 0.398438,0 0.742188,0.121093 1.027344,0.355468 0.285156,0.238282 0.429687,0.578125 0.429687,1.011719 v 18.058594 c 0,0.4375 -0.148437,0.78125 -0.4375,1.027343 -0.292968,0.246094 -0.636718,0.371094 -1.03125,0.371094 -0.46875,0 -0.828124,-0.121094 -1.078124,-0.355468 -0.253907,-0.238282 -0.378907,-0.585938 -0.378907,-1.042969 v -1.03125 C 11.246094,21.484375 9.605469,22.375 7.289062,22.375 c -1.011718,0 -1.917968,-0.203125 -2.722656,-0.617188 m 5.375,-1.773437 c 0.570313,-0.269531 1.011719,-0.652344 1.332032,-1.15625 0.320312,-0.507813 0.554687,-1.085937 0.699218,-1.734375 0.144532,-0.648438 0.21875,-1.402344 0.21875,-2.253906 0,-0.5625 -0.04687,-1.101563 -0.136718,-1.617188 -0.09375,-0.511718 -0.25,-1.003906 -0.46875,-1.476562 -0.21875,-0.472656 -0.484376,-0.878906 -0.800782,-1.222656 C 10.472656,10.179688 10.074219,9.90625 9.59375,9.699219 9.113281,9.496094 8.578125,9.394531 7.984375,9.394531 c -0.734375,0 -1.375,0.164063 -1.917969,0.488281 -0.542968,0.324219 -0.964844,0.761719 -1.261718,1.304688 -0.292969,0.542969 -0.511719,1.117188 -0.652344,1.730469 -0.140625,0.613281 -0.210938,1.25 -0.210938,1.921875 0,0.648437 0.0625,1.277344 0.195313,1.882812 0.132812,0.605469 0.335937,1.191406 0.617187,1.761719 0.28125,0.566406 0.691406,1.023437 1.230469,1.367187 0.539063,0.34375 1.171875,0.519532 1.898437,0.53125 0.804688,0 1.492188,-0.132812 2.058594,-0.398437"
           id="path4858" />
      </g>
    </g>
    <g
       mask="url(#mask-15)"
       id="g700"
       transform="matrix(0.35277777,0,0,0.35277777,-1927.8697,-416.45058)">
      <g
         id="use698"
         clip-path="url(#clip-16)"
         transform="translate(255,449)">
        <path
           fill-rule="nonzero"
           fill="#ffffff"
           fill-opacity="1"
           d="M 2.347656,3.976562 C 2.007812,3.660156 1.839844,3.246094 1.839844,2.730469 c 0,-0.515625 0.167968,-0.933594 0.507812,-1.25 C 2.6875,1.160156 3.132812,1 3.6875,1 c 0.542969,0 0.980469,0.160156 1.308594,0.480469 0.328125,0.316406 0.496094,0.734375 0.496094,1.25 0,0.515625 -0.167969,0.929687 -0.503907,1.246093 C 4.65625,4.289062 4.21875,4.449219 3.671875,4.449219 3.128906,4.449219 2.6875,4.289062 2.347656,3.976562 M 2.625,21.765625 c -0.28125,-0.25 -0.421875,-0.617187 -0.421875,-1.09375 V 9.105469 c 0,-0.457031 0.148437,-0.816407 0.445313,-1.078125 C 2.941406,7.765625 3.289062,7.632812 3.6875,7.632812 c 0.386719,0 0.726562,0.132813 1.015625,0.394532 0.292969,0.261718 0.441406,0.621094 0.441406,1.078125 v 11.566406 c 0,0.457031 -0.148437,0.816406 -0.445312,1.078125 -0.296875,0.265625 -0.644531,0.394531 -1.039063,0.394531 -0.410156,0 -0.753906,-0.125 -1.035156,-0.378906"
           id="path4854" />
      </g>
    </g>
    <g
       mask="url(#mask-16)"
       id="g704"
       transform="matrix(0.35277777,0,0,0.35277777,-1927.8697,-416.45058)">
      <g
         id="use702"
         clip-path="url(#clip-17)"
         transform="translate(262,455)">
        <path
           fill-rule="nonzero"
           fill="#ffffff"
           fill-opacity="1"
           d="M 5.332031,22.074219 C 4.4375,21.855469 3.726562,21.59375 3.191406,21.28125 2.824219,21.066406 2.636719,20.769531 2.636719,20.378906 c 0,-0.125 0.027343,-0.25 0.074219,-0.371094 0.046874,-0.121093 0.113281,-0.230468 0.195312,-0.320312 0.085938,-0.08984 0.183594,-0.164062 0.300781,-0.21875 0.117188,-0.05469 0.242188,-0.07813 0.378907,-0.07813 0.125,0 0.25,0.02344 0.378906,0.07422 0.039062,0.01563 0.289062,0.109375 0.753906,0.28125 0.464844,0.167968 0.808594,0.285156 1.019531,0.34375 0.214844,0.05469 0.542969,0.125 0.988281,0.199218 0.445313,0.07813 0.890626,0.117188 1.324219,0.117188 1.4375,0 2.539063,-0.371094 3.3125,-1.109375 0.769531,-0.746094 1.15625,-1.792969 1.15625,-3.152344 v -2.632812 c -0.417969,0.832031 -1.015625,1.480469 -1.796875,1.941406 -0.78125,0.460937 -1.699218,0.691406 -2.757812,0.691406 -2.078125,0 -3.71875,-0.664062 -4.925782,-1.996093 -1.207031,-1.328126 -1.8125,-3.054688 -1.8125,-5.179688 0,-2.203125 0.59375,-4.015625 1.785157,-5.433594 1.1875,-1.421875 2.808593,-2.132812 4.867187,-2.132812 1.203125,0 2.167969,0.222656 2.902344,0.667968 0.730469,0.445313 1.339844,1.089844 1.824219,1.921876 V 2.800781 c 0.03906,-0.371093 0.191406,-0.65625 0.453125,-0.859375 0.261718,-0.203125 0.5625,-0.308594 0.902344,-0.308594 0.378906,0 0.703124,0.125 0.972656,0.367188 0.273437,0.242188 0.410156,0.582031 0.410156,1.015625 v 12.96875 c 0,2.144531 -0.636719,3.75 -1.90625,4.816406 -1.269531,1.066407 -2.996094,1.601563 -5.183594,1.601563 -1.054687,0 -2.03125,-0.109375 -2.921875,-0.328125 m 6.039063,-9.234375 c 0.757812,-0.910156 1.132812,-2.234375 1.132812,-3.972656 0,-0.609376 -0.03906,-1.179688 -0.121094,-1.703126 C 12.300781,6.640625 12.160156,6.144531 11.960938,5.675781 11.761719,5.203125 11.507812,4.800781 11.203125,4.472656 10.898438,4.144531 10.507812,3.882812 10.039062,3.6875 9.566406,3.492188 9.03125,3.394531 8.429688,3.394531 7.847656,3.394531 7.316406,3.492188 6.835938,3.6875 6.355469,3.882812 5.953125,4.144531 5.621094,4.480469 5.292969,4.816406 5.015625,5.214844 4.792969,5.679688 4.570312,6.148438 4.40625,6.648438 4.304688,7.179688 4.203125,7.714844 4.152344,8.28125 4.152344,8.882812 c 0,0.890626 0.117187,1.6875 0.347656,2.378907 0.234375,0.691406 0.550781,1.25 0.949219,1.675781 0.394531,0.417969 0.847656,0.738281 1.351562,0.949219 0.503907,0.214843 1.046875,0.324219 1.628907,0.324219 1.203124,0 2.183593,-0.457032 2.941406,-1.371094"
           id="path4850" />
      </g>
    </g>
    <g
       mask="url(#mask-17)"
       id="g708"
       transform="matrix(0.35277777,0,0,0.35277777,-1927.8697,-416.45058)">
      <g
         id="use706"
         clip-path="url(#clip-18)"
         transform="translate(279,449)">
        <path
           fill-rule="nonzero"
           fill="#ffffff"
           fill-opacity="1"
           d="M 2.488281,3.976562 C 2.148438,3.660156 1.980469,3.246094 1.980469,2.730469 c 0,-0.515625 0.167969,-0.933594 0.507812,-1.25 C 2.828125,1.160156 3.273438,1 3.828125,1 c 0.542969,0 0.980469,0.160156 1.308594,0.480469 0.332031,0.316406 0.496093,0.734375 0.496093,1.25 0,0.515625 -0.167968,0.929687 -0.5,1.246093 -0.335937,0.3125 -0.773437,0.472657 -1.320312,0.472657 -0.542969,0 -0.984375,-0.160157 -1.324219,-0.472657 m 0.277344,17.789063 c -0.28125,-0.25 -0.421875,-0.617187 -0.421875,-1.09375 V 9.105469 c 0,-0.457031 0.148438,-0.816407 0.445312,-1.078125 0.296876,-0.261719 0.640626,-0.394532 1.039063,-0.394532 0.386719,0 0.726563,0.132813 1.019531,0.394532 0.289063,0.261718 0.4375,0.621094 0.4375,1.078125 v 11.566406 c 0,0.457031 -0.148437,0.816406 -0.445312,1.078125 -0.296875,0.265625 -0.644532,0.394531 -1.039063,0.394531 -0.410156,0 -0.753906,-0.125 -1.035156,-0.378906"
           id="path4846" />
      </g>
    </g>
    <g
       mask="url(#mask-18)"
       id="g712"
       transform="matrix(0.35277777,0,0,0.35277777,-1927.8697,-416.45058)">
      <g
         id="use710"
         clip-path="url(#clip-19)"
         transform="translate(285,450)">
        <path
           fill-rule="nonzero"
           fill="#ffffff"
           fill-opacity="1"
           d="M 5.410156,20.199219 C 4.71875,19.449219 4.375,18.355469 4.375,16.910156 V 8.6875 H 2.6875 C 2.339844,8.6875 2.074219,8.597656 1.886719,8.417969 1.703125,8.238281 1.613281,8.007812 1.613281,7.726562 c 0,-0.28125 0.085938,-0.511718 0.265625,-0.683593 C 2.058594,6.867188 2.324219,6.78125 2.671875,6.78125 H 4.375 L 4.769531,2.75 C 4.816406,2.382812 4.972656,2.074219 5.242188,1.832031 5.507812,1.589844 5.832031,1.46875 6.210938,1.46875 c 0.320312,0 0.585937,0.097656 0.792968,0.292969 0.207032,0.191406 0.3125,0.476562 0.3125,0.855469 V 6.78125 h 2.605469 c 0.347656,0 0.609375,0.089844 0.785156,0.277344 0.171875,0.183594 0.261719,0.414062 0.261719,0.695312 0,0.28125 -0.08984,0.507813 -0.261719,0.679688 C 10.53125,8.601562 10.269531,8.6875 9.921875,8.6875 H 7.316406 v 7.613281 c 0,0.929688 0.132813,1.617188 0.390625,2.0625 0.261719,0.445313 0.691407,0.671875 1.28125,0.671875 h 0.144531 l 1.035157,-0.05859 h 0.08594 c 0.359375,0 0.644532,0.113282 0.851563,0.339844 0.210937,0.230469 0.3125,0.492188 0.3125,0.792969 0,0.15625 -0.02344,0.296875 -0.07031,0.421875 -0.04687,0.128906 -0.113281,0.234375 -0.191406,0.316406 -0.07422,0.08203 -0.179688,0.152344 -0.3125,0.210938 -0.128906,0.05469 -0.257812,0.101562 -0.382812,0.136718 -0.128907,0.03516 -0.285157,0.0625 -0.476563,0.07813 -0.1875,0.02344 -0.359375,0.03125 -0.515625,0.03906 -0.15625,0.0039 -0.339844,0.0078 -0.550781,0.0078 H 8.21875 c -1.183594,0 -2.121094,-0.375 -2.808594,-1.121093"
           id="path4842" />
      </g>
    </g>
    <g
       mask="url(#mask-19)"
       id="g716"
       transform="matrix(0.35277777,0,0,0.35277777,-1927.8697,-416.45058)">
      <g
         id="use714"
         clip-path="url(#clip-20)"
         transform="translate(297,455)">
        <path
           fill-rule="nonzero"
           fill="#ffffff"
           fill-opacity="1"
           d="M 2.5625,15.285156 C 1.613281,14.558594 1.136719,13.523438 1.136719,12.1875 c 0,-0.574219 0.0625,-1.074219 0.183593,-1.507812 C 1.441406,10.25 1.609375,9.875 1.820312,9.558594 2.035156,9.242188 2.339844,8.976562 2.738281,8.757812 3.136719,8.539062 3.558594,8.363281 4.011719,8.226562 4.460938,8.09375 5.042969,7.988281 5.757812,7.914062 6.46875,7.84375 7.1875,7.792969 7.910156,7.769531 8.636719,7.746094 9.519531,7.730469 10.566406,7.730469 V 6.304688 c 0,-1.957032 -0.980468,-2.9375 -2.9375,-2.9375 -0.574218,0 -1.160156,0.066406 -1.761718,0.195312 C 5.265625,3.695312 4.8125,3.816406 4.507812,3.933594 4.199219,4.050781 3.796875,4.214844 3.292969,4.429688 3.175781,4.476562 3.054688,4.5 2.929688,4.5 2.832031,4.5 2.738281,4.488281 2.652344,4.457031 2.5625,4.429688 2.480469,4.386719 2.402344,4.332031 2.324219,4.28125 2.257812,4.21875 2.191406,4.144531 2.128906,4.070312 2.078125,3.996094 2.03125,3.914062 1.988281,3.832031 1.957031,3.746094 1.929688,3.65625 1.90625,3.570312 1.894531,3.484375 1.894531,3.394531 c 0,-0.164062 0.039063,-0.3125 0.117188,-0.441406 C 2.089844,2.820312 2.210938,2.710938 2.375,2.625 3.878906,1.808594 5.664062,1.402344 7.730469,1.402344 c 1.785156,0 3.191406,0.417968 4.222656,1.25 1.023437,0.835937 1.539063,2.136718 1.539063,3.902344 v 8.207031 c 0,0.4375 -0.144532,0.777343 -0.4375,1.027343 -0.289063,0.246094 -0.628907,0.367188 -1.015626,0.367188 -0.253906,0 -0.484374,-0.04687 -0.691406,-0.152344 -0.210937,-0.101562 -0.382812,-0.257812 -0.527344,-0.464844 -0.136718,-0.207031 -0.210937,-0.457031 -0.210937,-0.75 V 13.714844 C 9.75,15.488281 8.296875,16.375 6.261719,16.375 4.746094,16.375 3.515625,16.011719 2.5625,15.285156 M 9.347656,13.144531 C 10.148438,12.273438 10.554688,11.160156 10.554688,9.8125 V 9.40625 C 9.621094,9.40625 8.84375,9.417969 8.226562,9.441406 7.605469,9.46875 7.027344,9.515625 6.5,9.589844 5.96875,9.660156 5.558594,9.753906 5.257812,9.871094 c -0.300781,0.117187 -0.5625,0.277344 -0.78125,0.480468 -0.21875,0.203126 -0.367187,0.441407 -0.445312,0.71875 -0.074219,0.277344 -0.113281,0.609376 -0.113281,1 0,0.8125 0.238281,1.414063 0.710937,1.800782 0.476563,0.390625 1.117188,0.582031 1.921875,0.582031 1.058594,0 1.988281,-0.433594 2.796875,-1.308594"
           id="path4838" />
      </g>
    </g>
    <g
       mask="url(#mask-20)"
       id="g720"
       transform="matrix(0.35277777,0,0,0.35277777,-1927.8697,-416.45058)">
      <g
         id="use718"
         clip-path="url(#clip-21)"
         transform="translate(313,449)">
        <path
           fill-rule="nonzero"
           fill="#ffffff"
           fill-opacity="1"
           d="M 1.90625,21.765625 C 1.625,21.511719 1.484375,21.148438 1.484375,20.671875 V 2.761719 c 0,-0.449219 0.144531,-0.800781 0.4375,-1.0625 0.289063,-0.261719 0.636719,-0.394531 1.03125,-0.394531 0.398437,0 0.742187,0.132812 1.035156,0.394531 0.289063,0.261719 0.4375,0.613281 0.4375,1.0625 v 17.910156 c 0,0.457031 -0.152343,0.816406 -0.453125,1.078125 -0.300781,0.265625 -0.648437,0.394531 -1.046875,0.394531 -0.398437,0 -0.738281,-0.125 -1.019531,-0.378906"
           id="path4834" />
      </g>
    </g>
    <g
       mask="url(#mask-21)"
       id="g724"
       transform="matrix(0.35277777,0,0,0.35277777,-1927.8697,-416.45058)">
      <g
         id="use722"
         clip-path="url(#clip-22)"
         transform="translate(327,449)">
        <path
           fill-rule="nonzero"
           fill="#ffffff"
           fill-opacity="1"
           d="m 4.746094,21.765625 c -0.292969,-0.253906 -0.4375,-0.605469 -0.4375,-1.0625 V 9.6875 H 2.546875 C 2.199219,9.6875 1.933594,9.597656 1.753906,9.417969 1.574219,9.238281 1.484375,9.011719 1.484375,8.742188 1.484375,8.480469 1.574219,8.253906 1.753906,8.0625 1.933594,7.875 2.199219,7.78125 2.546875,7.78125 H 4.308594 V 6.003906 c 0,-3.257812 1.457031,-4.886718 4.378906,-4.886718 h 1.789062 c 0.3125,0 0.558594,0.113281 0.738282,0.347656 0.175781,0.234375 0.265625,0.5 0.265625,0.800781 0,0.300781 -0.08594,0.558594 -0.261719,0.777344 -0.171875,0.21875 -0.421875,0.328125 -0.742188,0.328125 H 9.242188 c -0.398438,0 -0.710938,0.03125 -0.933594,0.09375 C 8.085938,3.527344 7.886719,3.671875 7.710938,3.894531 7.539062,4.117188 7.417969,4.441406 7.347656,4.863281 7.28125,5.285156 7.25,5.855469 7.25,6.574219 V 7.78125 h 2.3125 c 0.339844,0 0.597656,0.09375 0.769531,0.28125 0.175781,0.191406 0.261719,0.417969 0.261719,0.679688 0,0.28125 -0.08594,0.507812 -0.253906,0.683593 C 10.167969,9.601562 9.910156,9.6875 9.5625,9.6875 H 7.25 v 11.015625 c 0,0.457031 -0.148438,0.808594 -0.441406,1.0625 -0.289063,0.253906 -0.632813,0.378906 -1.03125,0.378906 -0.398438,0 -0.742188,-0.125 -1.03125,-0.378906"
           id="path4830" />
      </g>
    </g>
    <g
       mask="url(#mask-22)"
       id="g728"
       transform="matrix(0.35277777,0,0,0.35277777,-1927.8697,-416.45058)">
      <g
         id="use726"
         clip-path="url(#clip-23)"
         transform="translate(339,450)">
        <path
           fill-rule="nonzero"
           fill="#ffffff"
           fill-opacity="1"
           d="M 2.507812,19.972656 C 1.53125,19.035156 1.042969,17.632812 1.042969,15.761719 V 8.046875 c 0,-0.445313 0.148437,-0.792969 0.4375,-1.039063 0.292969,-0.25 0.636719,-0.375 1.035156,-0.375 0.394531,0 0.738281,0.125 1.023437,0.375 0.289063,0.246094 0.429688,0.59375 0.429688,1.039063 v 7.742187 c 0,1.175782 0.277344,2.066407 0.832031,2.675782 0.550781,0.613281 1.308594,0.917968 2.269531,0.917968 1.085938,0 2.007813,-0.402343 2.773438,-1.207031 0.757812,-0.804687 1.160156,-1.882812 1.199219,-3.230469 V 8.046875 c 0,-0.445313 0.144531,-0.792969 0.4375,-1.039063 0.289062,-0.25 0.640625,-0.375 1.046875,-0.375 0.398437,0 0.738281,0.125 1.023437,0.375 0.289063,0.246094 0.429688,0.59375 0.429688,1.039063 v 11.714844 c 0,0.4375 -0.144531,0.773437 -0.433594,1.019531 -0.292969,0.242188 -0.640625,0.363281 -1.050781,0.363281 -0.394532,0 -0.738282,-0.117187 -1.023438,-0.347656 -0.289062,-0.234375 -0.429687,-0.558594 -0.429687,-0.976563 v -1.046874 c -0.386719,0.832031 -1,1.476562 -1.835938,1.925781 -0.832031,0.453125 -1.800781,0.679687 -2.910156,0.679687 -1.550781,0 -2.8125,-0.46875 -3.789063,-1.40625 M 3.335938,3.863281 C 3.023438,3.558594 2.863281,3.1875 2.863281,2.75 c 0,-0.425781 0.15625,-0.792969 0.464844,-1.097656 0.3125,-0.304688 0.71875,-0.460938 1.222656,-0.460938 0.496094,0 0.898438,0.15625 1.21875,0.460938 0.3125,0.304687 0.472657,0.671875 0.472657,1.097656 0,0.425781 -0.160157,0.796875 -0.472657,1.105469 -0.320312,0.308593 -0.722656,0.464843 -1.21875,0.464843 -0.492187,0 -0.898437,-0.152343 -1.214843,-0.457031 m 5.820312,0 C 8.84375,3.558594 8.683594,3.1875 8.683594,2.75 c 0,-0.417969 0.15625,-0.78125 0.46875,-1.09375 0.308594,-0.308594 0.714844,-0.464844 1.21875,-0.464844 0.496094,0 0.902344,0.15625 1.21875,0.460938 0.3125,0.304687 0.472656,0.671875 0.472656,1.097656 0,0.425781 -0.160156,0.796875 -0.472656,1.105469 -0.316406,0.308593 -0.722656,0.464843 -1.21875,0.464843 -0.492188,0 -0.898438,-0.152343 -1.214844,-0.457031"
           id="path4826" />
      </g>
    </g>
    <g
       mask="url(#mask-23)"
       id="g732"
       transform="matrix(0.35277777,0,0,0.35277777,-1927.8697,-416.45058)">
      <g
         id="use730"
         clip-path="url(#clip-24)"
         transform="translate(356,455)">
        <path
           fill-rule="nonzero"
           fill="#ffffff"
           fill-opacity="1"
           d="M 1.445312,15.789062 C 1.164062,15.550781 1.023438,15.207031 1.023438,14.761719 V 3.003906 c 0,-0.425781 0.148437,-0.757812 0.445312,-0.996094 0.296875,-0.238281 0.640625,-0.359374 1.039062,-0.359374 0.15625,0 0.304688,0.019531 0.445313,0.050781 C 3.09375,1.734375 3.222656,1.789062 3.347656,1.859375 3.46875,1.933594 3.574219,2.019531 3.664062,2.113281 3.757812,2.210938 3.828125,2.332031 3.886719,2.472656 3.9375,2.613281 3.964844,2.765625 3.964844,2.929688 L 3.933594,4.71875 C 4.175781,3.816406 4.667969,3.0625 5.410156,2.449219 6.15625,1.839844 7.015625,1.53125 7.996094,1.53125 c 0.347656,0 0.621094,0.128906 0.8125,0.378906 0.195312,0.253906 0.292968,0.554688 0.292968,0.902344 0,0.324219 -0.085937,0.597656 -0.261718,0.832031 C 8.664062,3.875 8.417969,3.992188 8.097656,3.992188 c -1.292968,0 -2.304687,0.300781 -3.035156,0.902343 -0.734375,0.601563 -1.097656,1.519531 -1.097656,2.75 v 7.117188 c 0,0.4375 -0.152344,0.777343 -0.453125,1.019531 -0.300781,0.242188 -0.648438,0.363281 -1.046875,0.363281 -0.398438,0 -0.738282,-0.121093 -1.019532,-0.355469"
           id="path4822" />
      </g>
    </g>
    <g
       mask="url(#mask-24)"
       id="g736"
       transform="matrix(0.35277777,0,0,0.35277777,-1927.8697,-416.45058)">
      <g
         id="use734"
         clip-path="url(#clip-25)"
         transform="translate(374,455)">
        <path
           fill-rule="nonzero"
           fill="#ffffff"
           fill-opacity="1"
           d="M 2.511719,15.285156 C 1.558594,14.558594 1.082031,13.523438 1.082031,12.1875 c 0,-0.574219 0.0625,-1.074219 0.183594,-1.507812 C 1.386719,10.25 1.554688,9.875 1.769531,9.558594 1.980469,9.242188 2.285156,8.976562 2.683594,8.757812 3.082031,8.539062 3.507812,8.363281 3.957031,8.226562 4.410156,8.09375 4.992188,7.988281 5.703125,7.914062 6.417969,7.84375 7.136719,7.792969 7.859375,7.769531 8.582031,7.746094 9.464844,7.730469 10.515625,7.730469 V 6.304688 c 0,-1.957032 -0.980469,-2.9375 -2.941406,-2.9375 -0.570313,0 -1.160157,0.066406 -1.757813,0.195312 C 5.210938,3.695312 4.761719,3.816406 4.453125,3.933594 4.148438,4.050781 3.742188,4.214844 3.238281,4.429688 3.121094,4.476562 3,4.5 2.875,4.5 2.777344,4.5 2.683594,4.488281 2.597656,4.457031 2.511719,4.429688 2.429688,4.386719 2.351562,4.332031 2.273438,4.28125 2.203125,4.21875 2.140625,4.144531 2.074219,4.070312 2.023438,3.996094 1.980469,3.914062 1.9375,3.832031 1.902344,3.746094 1.878906,3.65625 1.855469,3.570312 1.839844,3.484375 1.839844,3.394531 c 0,-0.164062 0.039062,-0.3125 0.117187,-0.441406 C 2.035156,2.820312 2.15625,2.710938 2.320312,2.625 3.824219,1.808594 5.609375,1.402344 7.675781,1.402344 c 1.785157,0 3.191407,0.417968 4.222657,1.25 1.027343,0.835937 1.542968,2.136718 1.542968,3.902344 v 8.207031 c 0,0.4375 -0.148437,0.777343 -0.441406,1.027343 -0.289062,0.246094 -0.628906,0.367188 -1.015625,0.367188 -0.253906,0 -0.484375,-0.04687 -0.691406,-0.152344 -0.210938,-0.101562 -0.382813,-0.257812 -0.523438,-0.464844 -0.140625,-0.207031 -0.210937,-0.457031 -0.210937,-0.75 V 13.714844 C 9.695312,15.488281 8.242188,16.375 6.207031,16.375 c -1.511719,0 -2.746093,-0.363281 -3.695312,-1.089844 m 6.78125,-2.140625 C 10.097656,12.273438 10.5,11.160156 10.5,9.8125 V 9.40625 c -0.929688,0 -1.707031,0.011719 -2.328125,0.035156 C 7.550781,9.46875 6.976562,9.515625 6.445312,9.589844 5.917969,9.660156 5.503906,9.753906 5.203125,9.871094 c -0.300781,0.117187 -0.5625,0.277344 -0.78125,0.480468 -0.214844,0.203126 -0.363281,0.441407 -0.441406,0.71875 -0.078125,0.277344 -0.117188,0.609376 -0.117188,1 0,0.8125 0.238281,1.414063 0.710938,1.800782 0.476562,0.390625 1.117187,0.582031 1.921875,0.582031 1.058594,0 1.992187,-0.433594 2.796875,-1.308594"
           id="path4818" />
      </g>
    </g>
    <g
       mask="url(#mask-25)"
       id="g740"
       transform="matrix(0.35277777,0,0,0.35277777,-1927.8697,-416.45058)">
      <g
         id="use738"
         clip-path="url(#clip-26)"
         transform="translate(390,449)">
        <path
           fill-rule="nonzero"
           fill="#ffffff"
           fill-opacity="1"
           d="M 1.855469,21.765625 C 1.574219,21.511719 1.433594,21.148438 1.433594,20.671875 V 2.761719 c 0,-0.449219 0.144531,-0.800781 0.433594,-1.0625 C 2.160156,1.4375 2.503906,1.304688 2.902344,1.304688 c 0.398437,0 0.742187,0.132812 1.03125,0.394531 0.292968,0.261719 0.4375,0.613281 0.4375,1.0625 v 17.910156 c 0,0.457031 -0.152344,0.816406 -0.453125,1.078125 -0.296875,0.265625 -0.648438,0.394531 -1.046875,0.394531 -0.398438,0 -0.738282,-0.125 -1.015625,-0.378906"
           id="path4814" />
      </g>
    </g>
    <g
       mask="url(#mask-26)"
       id="g744"
       transform="matrix(0.35277777,0,0,0.35277777,-1927.8697,-416.45058)">
      <g
         id="use742"
         clip-path="url(#clip-27)"
         transform="translate(397,449)">
        <path
           fill-rule="nonzero"
           fill="#ffffff"
           fill-opacity="1"
           d="M 1.878906,21.765625 C 1.597656,21.511719 1.457031,21.148438 1.457031,20.671875 V 2.761719 c 0,-0.449219 0.144531,-0.800781 0.433594,-1.0625 C 2.183594,1.4375 2.527344,1.304688 2.925781,1.304688 c 0.398438,0 0.742188,0.132812 1.03125,0.394531 0.292969,0.261719 0.4375,0.613281 0.4375,1.0625 v 17.910156 c 0,0.457031 -0.148437,0.816406 -0.449219,1.078125 -0.300781,0.265625 -0.652343,0.394531 -1.050781,0.394531 -0.394531,0 -0.734375,-0.125 -1.015625,-0.378906"
           id="path4810" />
      </g>
    </g>
    <g
       mask="url(#mask-27)"
       id="g748"
       transform="matrix(0.35277777,0,0,0.35277777,-1927.8697,-416.45058)">
      <g
         id="use746"
         clip-path="url(#clip-28)"
         transform="translate(403,455)">
        <path
           fill-rule="nonzero"
           fill="#ffffff"
           fill-opacity="1"
           d="M 3.632812,14.316406 C 2.277344,12.964844 1.601562,11.121094 1.601562,8.792969 1.601562,7.804688 1.761719,6.867188 2.074219,5.984375 2.390625,5.101562 2.839844,4.320312 3.421875,3.636719 4.003906,2.953125 4.742188,2.410156 5.640625,2.007812 6.539062,1.605469 7.535156,1.402344 8.628906,1.402344 c 1.117188,0 2.105469,0.1875 2.964844,0.570312 0.855469,0.375 1.542969,0.894532 2.050781,1.554688 0.507813,0.660156 0.898438,1.398437 1.164063,2.21875 0.265625,0.820312 0.410156,1.714844 0.429687,2.6875 0,0.316406 -0.07813,0.582031 -0.234375,0.78125 -0.152344,0.207031 -0.386718,0.308594 -0.695312,0.308594 H 4.554688 c 0.039062,1.609374 0.472656,2.808593 1.296874,3.59375 0.824219,0.785156 1.90625,1.1875 3.246094,1.207031 0.796875,0 1.523438,-0.148438 2.183594,-0.441407 0.660156,-0.296874 1.332031,-0.699218 2.019531,-1.203124 0.09766,-0.06641 0.195313,-0.117188 0.285157,-0.152344 0.09375,-0.03516 0.1875,-0.05078 0.285156,-0.05078 0.164062,0 0.316406,0.04688 0.457031,0.140626 0.140625,0.08984 0.25,0.214843 0.335937,0.367187 0.08203,0.15625 0.125,0.320313 0.125,0.496094 0,0.164062 -0.03906,0.324219 -0.109374,0.480469 -0.07422,0.15625 -0.191407,0.296874 -0.34375,0.421874 C 12.832031,15.714844 11.019531,16.375 8.894531,16.375 6.738281,16.359375 4.984375,15.671875 3.632812,14.316406 M 12.707031,7.746094 C 12.617188,6.484375 12.25,5.445312 11.601562,4.625 10.949219,3.804688 10.003906,3.394531 8.761719,3.394531 c -0.640625,0 -1.222657,0.125 -1.746094,0.371094 C 6.492188,4.015625 6.0625,4.347656 5.726562,4.773438 5.394531,5.191406 5.132812,5.65625 4.941406,6.160156 4.753906,6.664062 4.636719,7.195312 4.585938,7.746094 Z m 0,0"
           id="path4806" />
      </g>
    </g>
  </g>
</svg>
