<?xml version="1.0" encoding="UTF-8" standalone="no"?>
<!-- Created with Inkscape (http://www.inkscape.org/) -->

<svg
   width="106.5458mm"
   height="29.975088mm"
   viewBox="0 0 106.5458 29.975088"
   version="1.1"
   id="svg1754"
   inkscape:version="1.2.1 (9c6d41e410, 2022-07-14, custom)"
   sodipodi:docname="denktmit-logo-white-transparent.svg"
   xmlns:inkscape="http://www.inkscape.org/namespaces/inkscape"
   xmlns:sodipodi="http://sodipodi.sourceforge.net/DTD/sodipodi-0.dtd"
   xmlns="http://www.w3.org/2000/svg"
   xmlns:svg="http://www.w3.org/2000/svg">
  <sodipodi:namedview
     id="namedview1756"
     pagecolor="#ffffff"
     bordercolor="#999999"
     borderopacity="1"
     inkscape:showpageshadow="0"
     inkscape:pageopacity="0"
     inkscape:pagecheckerboard="0"
     inkscape:deskcolor="#d1d1d1"
     inkscape:document-units="mm"
     showgrid="false"
     inkscape:zoom="2.3051186"
     inkscape:cx="2.8198115"
     inkscape:cy="9.5439775"
     inkscape:window-width="5120"
     inkscape:window-height="1373"
     inkscape:window-x="0"
     inkscape:window-y="0"
     inkscape:window-maximized="1"
     inkscape:current-layer="layer1" />
  <defs
     id="defs1751">
    <clipPath
       id="clip-0">
      <path
         clip-rule="nonzero"
         d="M 0,70 H 841.89062 V 595.27734 H 0 Z m 0,0"
         id="path239" />
    </clipPath>
  </defs>
  <g
     inkscape:label="Ebene 1"
     inkscape:groupmode="layer"
     id="layer1"
     transform="translate(-39.164257,-23.226432)">
    <path
       fill-rule="nonzero"
       fill="#ffffff"
       fill-opacity="1"
       d="m 46.484357,39.470742 c -0.3059,-0.44786 -0.4589,-0.99632 -0.4589,-1.64537 v -11.70368 c 0,-1.55305 0.7387,-2.33026 2.2173,-2.33026 h 3.1199 c 2.9862,0 5.2434,0.70417 6.7744,2.10977 1.5296,1.4056 2.2958,3.45888 2.2958,6.15708 0,2.63067 -0.7565,4.63572 -2.2682,6.01651 -1.5117,1.37942 -3.6849,2.06844 -6.5181,2.06844 h -3.8227 c -0.5884,0 -1.0349,-0.22324 -1.3395,-0.67249 m 5.1498,-1.93889 c 1.8396,0 3.1364,-0.42444 3.8902,-1.27193 0.7537,-0.84888 1.1313,-2.27515 1.1313,-4.28019 0,-1.37253 -0.1832,-2.46531 -0.5484,-3.27973 -0.3666,-0.81442 -0.9164,-1.39871 -1.6523,-1.75287 -0.7345,-0.35415 -1.7088,-0.53192 -2.9228,-0.53192 h -1.91 v 11.11664 z m 0,0"
       id="path574"
       style="stroke-width:0.352778" />
    <path
       fill-rule="nonzero"
       fill="#ffffff"
       fill-opacity="1"
       d="m 63.966157,38.719712 c -1.0969,-1.03352 -1.6454,-2.48047 -1.6454,-4.34357 0,-1.05558 0.2288,-2.01607 0.6849,-2.88286 0.4562,-0.86678 1.1245,-1.56269 2.0065,-2.08635 0.8819,-0.52365 1.8961,-0.78548 3.0413,-0.78548 0.8971,0 1.6895,0.14607 2.3757,0.44097 0.6849,0.29353 1.232,0.69729 1.6385,1.20992 0.4079,0.51263 0.7152,1.08865 0.9219,1.72944 0.2081,0.64078 0.3156,1.33807 0.3225,2.09186 0,0.30179 -0.081,0.53881 -0.2426,0.71244 -0.1626,0.17364 -0.3982,0.26046 -0.7069,0.26046 h -6.8985 c 0.098,2.02709 1.1424,3.04133 3.1323,3.04133 0.9812,0 1.9596,-0.37208 2.9408,-1.11897 0.135,-0.113 0.2866,-0.1695 0.452,-0.1695 0.1281,0 0.2549,0.0331 0.3789,0.10197 0.124,0.0675 0.2315,0.15435 0.3225,0.25907 0.091,0.10611 0.164,0.22876 0.2205,0.36794 0.057,0.13918 0.084,0.27699 0.084,0.41341 0,0.0372 0,0.0717 -0.01,0.1006 0,0.0303 -0.01,0.062 -0.011,0.0965 0,0.0345 -0.011,0.0662 -0.022,0.0965 -0.011,0.0303 -0.025,0.0606 -0.04,0.0909 -0.015,0.0289 -0.03,0.0593 -0.045,0.0896 -0.015,0.0303 -0.033,0.0606 -0.056,0.0909 -0.022,0.0303 -0.047,0.0606 -0.073,0.091 -0.028,0.0303 -0.055,0.0551 -0.085,0.0785 -1.1838,1.05558 -2.6417,1.58336 -4.3767,1.58336 -1.779,-0.008 -3.2163,-0.52778 -4.3132,-1.55994 m 6.6889,-5.27099 c -0.1364,-1.92925 -0.9797,-2.89388 -2.5328,-2.89388 -0.7992,0 -1.4249,0.27836 -1.8783,0.83647 -0.4519,0.5581 -0.7041,1.24437 -0.7579,2.05741 z m 0,0"
       id="path576"
       style="stroke-width:0.352778" />
    <path
       fill-rule="nonzero"
       fill="#ffffff"
       fill-opacity="1"
       d="m 75.895857,39.669182 c -0.2632,-0.31695 -0.3955,-0.77308 -0.3955,-1.36839 v -7.90443 c 0,-0.52779 0.1392,-0.92742 0.4189,-1.19889 0.2784,-0.27147 0.6711,-0.40652 1.1755,-0.40652 0.4906,0 0.8695,0.13505 1.1369,0.40652 0.2673,0.27147 0.401,0.66697 0.401,1.18649 v 0.27285 c 0.6794,-1.36425 1.9568,-2.04776 3.8337,-2.04776 1.1382,0 2.0794,0.3762 2.8222,1.12585 0.7414,0.74966 1.1135,1.82177 1.1135,3.21635 v 5.34954 c 0,0.59531 -0.1406,1.05144 -0.419,1.36839 -0.2783,0.31557 -0.678,0.47405 -1.1989,0.47405 -0.4892,0 -0.8667,-0.15848 -1.1299,-0.47405 -0.2646,-0.31695 -0.3955,-0.77308 -0.3955,-1.36839 v -5.32612 c 0,-0.73863 -0.1916,-1.30638 -0.5719,-1.70187 -0.3804,-0.3955 -0.8654,-0.59394 -1.4525,-0.59394 -0.7097,0 -1.3174,0.27837 -1.8259,0.83647 -0.5099,0.55811 -0.7648,1.27744 -0.7648,2.15939 v 4.62607 c 0,0.59531 -0.1392,1.05144 -0.4175,1.36839 -0.2798,0.31557 -0.678,0.47405 -1.1989,0.47405 -0.4906,0 -0.8668,-0.15848 -1.1314,-0.47405"
       id="path578"
       style="stroke-width:0.352778" />
    <path
       fill-rule="nonzero"
       fill="#ffffff"
       fill-opacity="1"
       d="m 89.513657,39.663672 c -0.2591,-0.32108 -0.39,-0.78272 -0.39,-1.38631 v -12.61869 c 0,-0.60358 0.1337,-1.06522 0.401,-1.38631 0.2687,-0.3197 0.6463,-0.47956 1.1369,-0.47956 0.5126,0 0.9081,0.15986 1.1878,0.47956 0.2784,0.32109 0.4176,0.78273 0.4176,1.38631 v 8.03947 l 4.4676,-4.61367 c 0.074,-0.0827 0.1516,-0.15434 0.2315,-0.21497 0.08,-0.0606 0.1585,-0.10749 0.237,-0.14194 0.08,-0.0331 0.1613,-0.0593 0.2426,-0.0786 0.084,-0.0193 0.1626,-0.0289 0.2384,-0.0289 0.091,0 0.1791,0.01 0.2659,0.0289 0.087,0.0193 0.1695,0.0469 0.2481,0.0854 0.08,0.0372 0.1543,0.0827 0.2273,0.13505 0.072,0.0524 0.1365,0.11162 0.1971,0.17501 0.061,0.0648 0.1171,0.13642 0.1695,0.21497 0.052,0.0799 0.096,0.15848 0.1309,0.2384 0.033,0.0785 0.059,0.16261 0.079,0.25356 0.018,0.091 0.027,0.18053 0.027,0.27147 0,0.32384 -0.1199,0.61461 -0.361,0.87092 l -3.1447,3.14331 3.6077,3.87918 c 0.2412,0.27147 0.3624,0.56086 0.3624,0.87092 0,0.36104 -0.1488,0.67799 -0.4465,0.94947 -0.2976,0.27147 -0.6435,0.40652 -1.0349,0.40652 -0.098,0 -0.197,-0.01 -0.2935,-0.0275 -0.098,-0.0193 -0.1943,-0.051 -0.2894,-0.0965 -0.094,-0.0455 -0.1888,-0.10335 -0.2825,-0.17501 -0.094,-0.0717 -0.1819,-0.1571 -0.2659,-0.25494 l -4.6137,-5.13319 v 3.8213 c 0,0.60358 -0.1406,1.06522 -0.4231,1.38631 -0.2838,0.3197 -0.6849,0.47955 -1.2044,0.47955 -0.4906,0 -0.8654,-0.15985 -1.1258,-0.47955"
       id="path580"
       style="stroke-width:0.352778" />
    <path
       fill-rule="nonzero"
       fill="#ffffff"
       fill-opacity="1"
       d="m 103.26506,39.290222 c -0.5953,-0.63665 -0.8943,-1.5999 -0.8943,-2.88974 v -5.49562 h -0.9385 c -0.7386,0 -1.1079,-0.36105 -1.1079,-1.08589 0,-0.30868 0.09,-0.55398 0.2659,-0.7345 0.1764,-0.18052 0.4465,-0.27147 0.809,-0.27147 h 1.0969 l 0.3045,-2.61276 c 0.1213,-1.08452 0.6298,-1.62747 1.5269,-1.62747 0.7992,0 1.1989,0.54571 1.1989,1.63987 v 2.60036 h 1.6398 c 0.7084,0 1.0625,0.35415 1.0625,1.06246 0,0.68627 -0.3652,1.0294 -1.0969,1.0294 h -1.6054 v 4.76112 c 0,0.79926 0.096,1.37804 0.288,1.73495 0.1929,0.35829 0.5333,0.53744 1.0239,0.53744 h 0.135 l 0.7469,-0.0331 h 0.067 c 0.3018,0 0.5388,0.10886 0.7125,0.32797 0.1736,0.21774 0.2604,0.47405 0.2604,0.76757 0,0.17364 -0.029,0.3266 -0.085,0.45889 -0.057,0.13229 -0.1268,0.24115 -0.2095,0.32797 -0.083,0.0868 -0.1998,0.15985 -0.35,0.22049 -0.1516,0.0606 -0.2921,0.10749 -0.4244,0.14056 -0.1323,0.0345 -0.3073,0.0592 -0.5251,0.0744 -0.2191,0.0152 -0.4051,0.0248 -0.5608,0.0275 -0.153,0.004 -0.3597,0.007 -0.616,0.007 h -0.237 c -1.0625,-0.008 -1.8921,-0.33073 -2.4874,-0.96738"
       id="path582"
       style="stroke-width:0.352778" />
    <path
       fill-rule="nonzero"
       fill="#ffffff"
       fill-opacity="1"
       d="m 118.71706,39.029772 c -0.328,-0.29765 -0.6133,-0.7593 -0.8544,-1.38493 l -3.9922,-9.81576 v 10.93473 c 0,0.43822 -0.1543,0.77721 -0.463,1.01837 -0.3087,0.24116 -0.678,0.36105 -1.108,0.36105 -0.4299,0 -0.8034,-0.12265 -1.1189,-0.36656 -0.317,-0.24529 -0.4755,-0.58291 -0.4755,-1.01286 l -0.012,-12.2921 c 0,-0.69315 0.266,-1.26366 0.7979,-1.7129 0.5319,-0.44786 1.1548,-0.67248 1.8714,-0.67248 0.3927,0 0.7662,0.0717 1.1203,0.21497 0.3542,0.14332 0.6932,0.38172 1.017,0.71796 0.3239,0.33624 0.5816,0.75241 0.769,1.24988 l 3.6862,8.96689 3.6863,-8.96689 c 0.2797,-0.73174 0.6807,-1.27882 1.2044,-1.63987 0.525,-0.36242 1.0886,-0.54294 1.6908,-0.54294 0.7166,0 1.3409,0.22462 1.8714,0.67248 0.5319,0.44924 0.7979,1.01975 0.7979,1.7129 v 12.2921 c 0,0.42995 -0.1585,0.76757 -0.4754,1.01286 -0.317,0.24391 -0.6891,0.36656 -1.119,0.36656 -0.4299,0 -0.802,-0.11989 -1.1135,-0.36105 -0.3141,-0.24116 -0.4699,-0.58015 -0.4699,-1.01837 l 0.011,-10.93473 -3.9921,9.81576 c -0.2412,0.61874 -0.5251,1.07763 -0.853,1.37942 -0.328,0.30179 -0.74,0.452 -1.2389,0.452 -0.4975,0 -0.9095,-0.14883 -1.2375,-0.44649"
       id="path584"
       style="stroke-width:0.352778" />
    <path
       fill-rule="nonzero"
       fill="#ffffff"
       fill-opacity="1"
       d="m 132.72066,26.065192 c -0.3239,-0.30179 -0.4865,-0.69729 -0.4865,-1.18787 0,-0.4892 0.164,-0.88746 0.492,-1.192 0.328,-0.30593 0.7593,-0.45889 1.2953,-0.45889 0.5278,0 0.955,0.15296 1.283,0.45889 0.328,0.30454 0.492,0.7028 0.492,1.192 0,0.49058 -0.164,0.88608 -0.492,1.18787 -0.328,0.30179 -0.7593,0.452 -1.294,0.452 -0.536,0 -0.966,-0.15021 -1.2898,-0.452 m 0.1254,13.60399 c -0.2729,-0.31695 -0.4079,-0.77997 -0.4079,-1.39182 v -7.62193 c 0,-0.6022 0.1337,-1.06384 0.401,-1.38492 0.2673,-0.31971 0.6463,-0.47956 1.1369,-0.47956 0.5126,0 0.9095,0.15985 1.1934,0.47956 0.2825,0.32108 0.423,0.78272 0.423,1.38492 v 7.62193 c 0,0.60359 -0.1337,1.06523 -0.401,1.38631 -0.2673,0.31971 -0.6587,0.47956 -1.17,0.47956 -0.5126,0 -0.9053,-0.1571 -1.1754,-0.47405"
       id="path586"
       style="stroke-width:0.352778" />
    <path
       fill-rule="nonzero"
       fill="#ffffff"
       fill-opacity="1"
       d="m 140.03936,39.290222 c -0.5953,-0.63665 -0.8929,-1.5999 -0.8929,-2.88974 v -5.49562 h -0.9398 c -0.7373,0 -1.1066,-0.36105 -1.1066,-1.08589 0,-0.30868 0.088,-0.55398 0.2646,-0.7345 0.1777,-0.18052 0.4465,-0.27147 0.8089,-0.27147 h 1.0969 l 0.3045,-2.61276 c 0.1213,-1.08452 0.6298,-1.62747 1.5269,-1.62747 0.7993,0 1.1989,0.54571 1.1989,1.63987 v 2.60036 h 1.6399 c 0.7083,0 1.0624,0.35415 1.0624,1.06246 0,0.68627 -0.3651,1.0294 -1.0969,1.0294 h -1.6054 v 4.76112 c 0,0.79926 0.097,1.37804 0.288,1.73495 0.1929,0.35829 0.5333,0.53744 1.0239,0.53744 h 0.135 l 0.7469,-0.0331 h 0.068 c 0.3018,0 0.5388,0.10886 0.7124,0.32797 0.1736,0.21774 0.2605,0.47405 0.2605,0.76757 0,0.17364 -0.029,0.3266 -0.085,0.45889 -0.057,0.13229 -0.1254,0.24115 -0.2094,0.32797 -0.083,0.0868 -0.1985,0.15985 -0.3501,0.22049 -0.1516,0.0606 -0.2921,0.10749 -0.423,0.14056 -0.1323,0.0345 -0.3087,0.0592 -0.5264,0.0744 -0.2191,0.0152 -0.4052,0.0248 -0.5595,0.0275 -0.1544,0.004 -0.3611,0.007 -0.616,0.007 h -0.2384 c -1.0625,-0.008 -1.892,-0.33073 -2.4874,-0.96738"
       id="path588"
       style="stroke-width:0.352778" />
    <path
       fill-rule="nonzero"
       fill="#ffffff"
       fill-opacity="1"
       d="m 39.164257,39.371532 c 0,-0.0469 0,-0.091 0.012,-0.13643 l 0.9495,-5.60862 c 0.067,-0.4079 0.3431,-0.61873 0.8254,-0.63389 h 1.9003 c 0.2784,0.0234 0.4176,0.16674 0.4176,0.42995 0,0.0758 -0.011,0.14331 -0.034,0.20394 l -1.9899,5.60862 c -0.068,0.17363 -0.146,0.29766 -0.237,0.37345 -0.09,0.0744 -0.2108,0.113 -0.361,0.113 h -1.1989 c -0.1888,-0.008 -0.2839,-0.12402 -0.2839,-0.35002 m 1.1934,-11.09321 c -0.3349,-0.32522 -0.503,-0.73587 -0.503,-1.23335 0,-0.45199 0.164,-0.84611 0.4919,-1.18097 0.328,-0.33625 0.7442,-0.50437 1.2499,-0.50437 0.4823,0 0.8944,0.16261 1.2375,0.48645 0.3431,0.32384 0.5154,0.72347 0.5154,1.19889 0,0.48232 -0.164,0.88884 -0.492,1.22095 -0.3279,0.3321 -0.7482,0.49747 -1.2609,0.49747 -0.4906,0 -0.904,-0.16123 -1.2388,-0.48507"
       id="path590"
       style="stroke-width:0.352778" />
    <path
       fill-rule="nonzero"
       fill="#ffffff"
       fill-opacity="1"
       d="m 46.611157,50.348981 c -0.4768,-0.476801 -0.7166,-1.125859 -0.7166,-1.947168 0,-0.348643 0.056,-0.679372 0.1668,-0.990812 0.1116,-0.311435 0.2701,-0.588422 0.4754,-0.829578 0.2053,-0.241155 0.4672,-0.432703 0.7827,-0.574643 0.317,-0.141936 0.6684,-0.213593 1.0556,-0.213593 0.3927,0 0.7414,0.06752 1.0446,0.201193 0.3031,0.133668 0.5443,0.31557 0.7234,0.54846 0.1805,0.232886 0.317,0.493335 0.4107,0.782726 0.095,0.289387 0.1447,0.606337 0.1516,0.94809 0,0.112998 -0.028,0.205327 -0.083,0.276983 -0.054,0.07166 -0.1364,0.107488 -0.2453,0.107488 h -3.441 c 0.014,0.56775 0.1668,0.990808 0.4575,1.267795 0.2908,0.278363 0.6725,0.420303 1.1452,0.425814 0.2811,0 0.5374,-0.05099 0.7703,-0.15572 0.2329,-0.104729 0.4699,-0.24529 0.7125,-0.424434 0.036,-0.02342 0.069,-0.04134 0.1006,-0.05374 0.033,-0.01101 0.066,-0.01792 0.1005,-0.01792 0.058,0 0.1117,0.01654 0.1627,0.04961 0.048,0.03168 0.088,0.07579 0.1171,0.130912 0.029,0.05512 0.044,0.113002 0.044,0.173634 0,0.05926 -0.014,0.115757 -0.039,0.170879 -0.026,0.05374 -0.066,0.103349 -0.1213,0.147447 -0.5305,0.469914 -1.1699,0.704179 -1.9196,0.704179 -0.7593,-0.0069 -1.3794,-0.249424 -1.8562,-0.727604 m 3.2012,-2.317859 c -0.03,-0.443731 -0.1612,-0.811668 -0.39,-1.101055 -0.2301,-0.289387 -0.5636,-0.434082 -1.0018,-0.434082 -0.2246,0 -0.4314,0.0441 -0.616,0.132291 -0.1847,0.08682 -0.3363,0.205328 -0.4534,0.354157 -0.1185,0.148827 -0.2108,0.311436 -0.2783,0.489204 -0.066,0.179144 -0.1075,0.365178 -0.1254,0.559485 z m 0,0"
       id="path592"
       style="stroke-width:0.352778" />
    <path
       fill-rule="nonzero"
       fill="#ffffff"
       fill-opacity="1"
       d="m 51.883557,44.584645 c -0.1199,-0.111619 -0.1805,-0.25769 -0.1805,-0.438214 0,-0.181903 0.061,-0.329353 0.1805,-0.442351 0.1185,-0.112999 0.277,-0.169499 0.4713,-0.169499 0.1929,0 0.3459,0.0565 0.463,0.169499 0.1157,0.112998 0.175,0.260448 0.175,0.442351 0,0.180524 -0.059,0.326595 -0.1778,0.438214 -0.1185,0.110243 -0.2728,0.166744 -0.4644,0.166744 -0.1915,0 -0.3486,-0.0565 -0.4671,-0.166744 m 0.098,6.275588 c -0.1006,-0.08819 -0.1488,-0.216351 -0.1488,-0.384475 V 46.39401 c 0,-0.16123 0.051,-0.286632 0.1557,-0.378961 0.1047,-0.09233 0.2274,-0.139181 0.3666,-0.139181 0.1378,0 0.2577,0.04685 0.3596,0.139181 0.1034,0.09233 0.1544,0.217731 0.1544,0.378961 v 4.081748 c 0,0.16123 -0.052,0.286632 -0.1557,0.380341 -0.1048,0.09233 -0.2274,0.137802 -0.368,0.137802 -0.1433,0 -0.2646,-0.0441 -0.3638,-0.133668"
       id="path594"
       style="stroke-width:0.352778" />
    <path
       fill-rule="nonzero"
       fill="#ffffff"
       fill-opacity="1"
       d="m 54.402557,50.862988 c -0.1006,-0.08682 -0.1515,-0.208082 -0.1515,-0.362422 v -4.136874 c 0,-0.15434 0.051,-0.272848 0.1543,-0.356912 0.102,-0.08406 0.2232,-0.126778 0.3638,-0.126778 0.1406,0 0.2618,0.04134 0.3624,0.124023 0.1006,0.08131 0.1516,0.197062 0.1516,0.344509 v 0.363802 c 0.1364,-0.297657 0.3514,-0.525032 0.6435,-0.682128 0.2936,-0.158475 0.6353,-0.237021 1.0253,-0.237021 0.2632,0 0.5057,0.03858 0.7262,0.115754 0.2205,0.07717 0.4176,0.192927 0.5898,0.350022 0.1737,0.154341 0.3073,0.362423 0.4024,0.620117 0.097,0.259073 0.1447,0.555349 0.1447,0.891589 v 2.729897 c 0,0.15434 -0.052,0.275607 -0.1571,0.362422 -0.1033,0.08682 -0.226,0.130913 -0.3665,0.130913 -0.1406,0 -0.2605,-0.0441 -0.3611,-0.130913 -0.102,-0.08682 -0.1529,-0.208082 -0.1529,-0.362422 v -2.740921 c 0,-0.410655 -0.098,-0.72347 -0.2977,-0.939821 -0.1984,-0.214973 -0.4672,-0.32384 -0.8062,-0.32384 -0.3789,0 -0.7028,0.14194 -0.9701,0.424438 -0.266,0.282497 -0.4065,0.662834 -0.4203,1.142393 v 2.437751 c 0,0.15434 -0.051,0.275607 -0.1543,0.362422 -0.102,0.08682 -0.2233,0.130913 -0.3652,0.130913 -0.1392,0 -0.2605,-0.0441 -0.3611,-0.130913"
       id="path596"
       style="stroke-width:0.352778" />
    <path
       fill-rule="nonzero"
       fill="#ffffff"
       fill-opacity="1"
       d="m 60.646457,50.860233 c -0.1033,-0.08819 -0.1543,-0.213596 -0.1543,-0.374826 v -3.88607 h -0.6215 c -0.1227,0 -0.2164,-0.03168 -0.2798,-0.09508 -0.062,-0.06339 -0.095,-0.141936 -0.095,-0.2384 0,-0.09233 0.033,-0.172254 0.095,-0.2384 0.063,-0.06753 0.1571,-0.100598 0.2798,-0.100598 h 0.6215 v -0.62563 c 0,-1.150659 0.5154,-1.725302 1.5461,-1.725302 h 0.6312 c 0.1089,0 0.1957,0.04134 0.2591,0.122646 0.063,0.08268 0.095,0.176389 0.095,0.282498 0,0.106108 -0.03,0.197058 -0.092,0.274228 -0.062,0.07855 -0.1488,0.115757 -0.2618,0.115757 h -0.4369 c -0.1405,0 -0.2494,0.01101 -0.3279,0.03447 -0.08,0.02205 -0.1489,0.07304 -0.2109,0.151585 -0.062,0.07717 -0.1047,0.191548 -0.1281,0.340375 -0.025,0.148829 -0.036,0.350022 -0.036,0.603581 v 0.425813 h 0.8158 c 0.1198,0 0.2108,0.03306 0.2714,0.100599 0.062,0.06614 0.094,0.146071 0.094,0.2384 0,0.09922 -0.03,0.179144 -0.091,0.241155 -0.059,0.06201 -0.1502,0.09233 -0.2742,0.09233 h -0.8158 v 3.886069 c 0,0.16123 -0.052,0.286632 -0.1544,0.374827 -0.1033,0.08957 -0.2246,0.133667 -0.3638,0.133667 -0.1419,0 -0.2632,-0.0441 -0.3652,-0.133667"
       id="path598"
       style="stroke-width:0.352778" />
    <path
       fill-rule="nonzero"
       fill="#ffffff"
       fill-opacity="1"
       d="m 63.770457,50.690734 c -0.3348,-0.256314 -0.5029,-0.621496 -0.5029,-1.092786 0,-0.202572 0.022,-0.37896 0.065,-0.531921 0.043,-0.151585 0.102,-0.283877 0.1778,-0.395496 0.074,-0.110243 0.1819,-0.205331 0.3225,-0.282501 0.1405,-0.07579 0.2907,-0.139181 0.4492,-0.187413 0.1585,-0.04685 0.3638,-0.08406 0.616,-0.110243 0.2508,-0.0248 0.5057,-0.04272 0.7593,-0.05099 0.2563,-0.0083 0.5677,-0.01242 0.9384,-0.01242 v -0.502983 c 0,-0.691776 -0.3472,-1.037664 -1.0376,-1.037664 -0.2026,0 -0.4093,0.02342 -0.6215,0.07028 -0.2123,0.04547 -0.3721,0.08957 -0.4796,0.129536 -0.1089,0.04134 -0.2508,0.09922 -0.4286,0.17501 -0.041,0.01792 -0.084,0.02618 -0.1281,0.02618 -0.034,0 -0.067,-0.0055 -0.098,-0.01517 -0.032,-0.01101 -0.061,-0.02618 -0.087,-0.0441 -0.029,-0.0193 -0.052,-0.04134 -0.074,-0.06615 -0.023,-0.02618 -0.041,-0.05374 -0.058,-0.08268 -0.015,-0.02893 -0.026,-0.05925 -0.036,-0.09095 -0.01,-0.0303 -0.012,-0.06063 -0.012,-0.09233 0,-0.05788 0.014,-0.108864 0.041,-0.155716 0.028,-0.04686 0.07,-0.08406 0.1282,-0.115757 0.5305,-0.286632 1.1603,-0.431324 1.8893,-0.431324 0.6297,0 1.1258,0.147447 1.4896,0.442348 0.3625,0.293522 0.543,0.752408 0.543,1.375283 v 2.895258 c 0,0.15434 -0.051,0.275607 -0.1544,0.362423 -0.1019,0.08682 -0.2218,0.130915 -0.3583,0.130915 -0.09,0 -0.1708,-0.01792 -0.2439,-0.05375 -0.074,-0.03583 -0.135,-0.09095 -0.1846,-0.163986 -0.05,-0.07442 -0.074,-0.162609 -0.074,-0.264583 v -0.380337 c -0.3046,0.625627 -0.8172,0.939821 -1.5352,0.939821 -0.5347,0 -0.9687,-0.128157 -1.305,-0.38585 m 2.3937,-0.753788 c 0.2839,-0.30868 0.4258,-0.700045 0.4258,-1.176845 v -0.143316 c -0.3294,0 -0.6036,0.0055 -0.8213,0.01379 -0.2191,0.0083 -0.4231,0.0248 -0.6091,0.05099 -0.1874,0.0248 -0.3321,0.05925 -0.4382,0.09922 -0.1061,0.04134 -0.1985,0.09784 -0.2756,0.169495 -0.077,0.07304 -0.1282,0.157099 -0.1558,0.254939 -0.028,0.09784 -0.041,0.214976 -0.041,0.351398 0,0.288012 0.084,0.500229 0.2508,0.636655 0.1681,0.136426 0.3941,0.205327 0.678,0.205327 0.3735,0 0.7014,-0.15434 0.9867,-0.461641"
       id="path600"
       style="stroke-width:0.352778" />
    <path
       fill-rule="nonzero"
       fill="#ffffff"
       fill-opacity="1"
       d="m 69.866957,50.719672 c -0.379,-0.2384 -0.667,-0.556729 -0.8613,-0.95498 -0.1957,-0.398254 -0.2935,-0.843361 -0.2935,-1.332565 0,-0.485069 0.1033,-0.927417 0.3087,-1.327047 0.2053,-0.398255 0.5016,-0.71658 0.8902,-0.954984 0.3886,-0.237021 0.8337,-0.355533 1.3381,-0.355533 0.3004,0 0.5732,0.03996 0.8185,0.119892 0.2453,0.07993 0.4424,0.176389 0.5926,0.290763 0.1309,0.09509 0.1943,0.202572 0.1943,0.322463 0,0.05512 -0.014,0.104729 -0.043,0.151582 -0.029,0.04548 -0.069,0.08268 -0.1186,0.107488 -0.05,0.02618 -0.1047,0.03859 -0.1667,0.03859 -0.074,0 -0.1488,-0.02067 -0.2205,-0.06201 -0.2976,-0.180523 -0.6284,-0.271476 -0.9908,-0.271476 -0.4754,0 -0.8558,0.177768 -1.1424,0.530546 -0.2852,0.355533 -0.4286,0.826822 -0.4286,1.415245 0,0.359668 0.055,0.682128 0.164,0.970139 0.1103,0.288011 0.2825,0.520898 0.5168,0.698666 0.2343,0.177765 0.514,0.265959 0.8392,0.265959 0.4506,0 0.8268,-0.10335 1.1245,-0.312812 0.037,-0.02755 0.076,-0.04686 0.1157,-0.05926 0.039,-0.01101 0.077,-0.01792 0.1144,-0.01792 0.045,0 0.085,0.0083 0.1227,0.02343 0.039,0.01517 0.072,0.03721 0.1006,0.06339 0.029,0.02893 0.052,0.06201 0.068,0.100598 0.015,0.03996 0.022,0.07993 0.022,0.119888 0,0.05512 -0.014,0.112999 -0.043,0.170875 -0.029,0.05788 -0.074,0.113002 -0.1364,0.163989 -0.3624,0.301791 -0.8847,0.451997 -1.5655,0.451997 -0.5002,0 -0.9398,-0.119892 -1.3201,-0.356913"
       id="path602"
       style="stroke-width:0.352778" />
    <path
       fill-rule="nonzero"
       fill="#ffffff"
       fill-opacity="1"
       d="m 73.990057,50.862988 c -0.1006,-0.08682 -0.1516,-0.209461 -0.1516,-0.366557 v -6.372048 c 0,-0.150206 0.052,-0.267342 0.1543,-0.352778 0.1034,-0.08682 0.2246,-0.129537 0.3638,-0.129537 0.142,0 0.2632,0.04272 0.3652,0.129537 0.1034,0.08544 0.1544,0.202572 0.1544,0.352778 v 2.506652 c 0.1474,-0.260453 0.3693,-0.464401 0.6669,-0.614606 0.2977,-0.14883 0.6367,-0.223242 1.017,-0.223242 0.2494,0 0.4823,0.03858 0.6987,0.112999 0.215,0.07579 0.4093,0.188789 0.5815,0.341753 0.1736,0.152961 0.3101,0.356912 0.4107,0.613227 0.1019,0.256314 0.1515,0.552594 0.1515,0.888834 v 2.746431 c 0,0.157096 -0.051,0.279742 -0.1543,0.366557 -0.102,0.08682 -0.2246,0.130913 -0.3679,0.130913 -0.142,0 -0.2619,-0.0441 -0.3625,-0.130913 -0.1019,-0.08682 -0.1515,-0.209461 -0.1515,-0.366557 v -2.778125 c 0,-0.396875 -0.097,-0.694531 -0.288,-0.892969 -0.1916,-0.198437 -0.4507,-0.297656 -0.7745,-0.297656 -0.3983,0 -0.7345,0.139182 -1.0115,0.416165 -0.277,0.276987 -0.4161,0.655948 -0.4161,1.139638 v 2.412947 c 0,0.157096 -0.051,0.279742 -0.1544,0.366557 -0.102,0.08682 -0.226,0.130913 -0.3693,0.130913 -0.1406,0 -0.2618,-0.0441 -0.3624,-0.130913"
       id="path604"
       style="stroke-width:0.352778" />
    <path
       fill-rule="nonzero"
       fill="#ffffff"
       fill-opacity="1"
       d="m 83.736857,50.857474 c -0.2852,-0.144691 -0.5167,-0.341753 -0.6959,-0.589798 -0.1791,-0.248049 -0.3169,-0.531922 -0.4134,-0.848872 -0.095,-0.318325 -0.1433,-0.658703 -0.1433,-1.016991 0,-0.766191 0.2053,-1.393197 0.616,-1.878266 0.4106,-0.487825 0.9687,-0.73036 1.6729,-0.73036 0.7745,0 1.3271,0.300412 1.6592,0.898479 v -2.567283 c 0,-0.152965 0.051,-0.272853 0.1529,-0.356913 0.1034,-0.08268 0.2247,-0.124022 0.3652,-0.124022 0.1406,0 0.2618,0.04134 0.3624,0.124022 0.1006,0.08406 0.1516,0.203948 0.1516,0.356913 v 6.372048 c 0,0.152961 -0.052,0.274228 -0.1543,0.361043 -0.1034,0.08819 -0.2246,0.130916 -0.3638,0.130916 -0.1654,0 -0.2922,-0.04134 -0.3804,-0.125402 -0.09,-0.08406 -0.1336,-0.205327 -0.1336,-0.366557 V 50.13125 c -0.339,0.629764 -0.9178,0.945335 -1.735,0.945335 -0.3569,0 -0.6766,-0.07304 -0.9605,-0.219111 m 1.8962,-0.625626 c 0.2012,-0.09508 0.3569,-0.230135 0.4699,-0.407899 0.113,-0.177769 0.1957,-0.381717 0.2467,-0.610472 0.051,-0.230134 0.077,-0.494718 0.077,-0.796505 0,-0.198438 -0.017,-0.388609 -0.048,-0.569133 -0.033,-0.181899 -0.088,-0.355533 -0.1653,-0.522273 -0.077,-0.165365 -0.1709,-0.308681 -0.2825,-0.431328 -0.1103,-0.121267 -0.2508,-0.21773 -0.4203,-0.289387 -0.1695,-0.07166 -0.3583,-0.107488 -0.5678,-0.107488 -0.2591,0 -0.4851,0.05788 -0.6766,0.172255 -0.1915,0.114377 -0.3404,0.267338 -0.4451,0.458886 -0.1034,0.191548 -0.1805,0.395499 -0.2301,0.610471 -0.05,0.216352 -0.074,0.442352 -0.074,0.677997 0,0.228752 0.022,0.450617 0.069,0.664213 0.047,0.214973 0.1185,0.421679 0.2177,0.621496 0.099,0.201193 0.2439,0.361043 0.4341,0.482311 0.1901,0.122647 0.4134,0.184658 0.6697,0.187413 0.2839,0 0.5264,-0.04685 0.7262,-0.140557"
       id="path606"
       style="stroke-width:0.352778" />
    <path
       fill-rule="nonzero"
       fill="#ffffff"
       fill-opacity="1"
       d="m 88.951357,44.584645 c -0.1199,-0.111619 -0.1791,-0.25769 -0.1791,-0.438214 0,-0.181903 0.059,-0.329353 0.1791,-0.442351 0.1199,-0.112999 0.277,-0.169499 0.4727,-0.169499 0.1915,0 0.3459,0.0565 0.4616,0.169499 0.1158,0.112998 0.1751,0.260448 0.1751,0.442351 0,0.180524 -0.059,0.326595 -0.1778,0.438214 -0.1171,0.110243 -0.2715,0.166744 -0.4644,0.166744 -0.1916,0 -0.3473,-0.0565 -0.4672,-0.166744 m 0.098,6.275588 c -0.099,-0.08819 -0.1489,-0.216351 -0.1489,-0.384475 V 46.39401 c 0,-0.16123 0.052,-0.286632 0.1571,-0.378961 0.1034,-0.09233 0.226,-0.139181 0.3666,-0.139181 0.1364,0 0.2563,0.04685 0.3583,0.139181 0.1033,0.09233 0.1557,0.217731 0.1557,0.378961 v 4.081748 c 0,0.16123 -0.052,0.286632 -0.1571,0.380341 -0.1047,0.09233 -0.2274,0.137802 -0.3665,0.137802 -0.1447,0 -0.266,-0.0441 -0.3652,-0.133668"
       id="path608"
       style="stroke-width:0.352778" />
    <path
       fill-rule="nonzero"
       fill="#ffffff"
       fill-opacity="1"
       d="m 92.473657,53.085764 c -0.3156,-0.07717 -0.5664,-0.1695 -0.7552,-0.278363 -0.1295,-0.07717 -0.1956,-0.181903 -0.1956,-0.319705 0,-0.0441 0.01,-0.08819 0.026,-0.130916 0.017,-0.04272 0.04,-0.07993 0.069,-0.112998 0.03,-0.03168 0.065,-0.05788 0.1061,-0.07717 0.041,-0.01792 0.085,-0.02755 0.1337,-0.02755 0.044,0 0.088,0.0083 0.1337,0.02618 0.014,0.0069 0.102,0.03858 0.2659,0.09922 0.164,0.06063 0.2853,0.100594 0.3597,0.121267 0.076,0.02067 0.1916,0.0441 0.3486,0.07166 0.1571,0.02755 0.3142,0.04134 0.4672,0.04134 0.5071,0 0.8957,-0.130916 1.1686,-0.39274 0.2715,-0.261828 0.4079,-0.63252 0.4079,-1.112079 v -0.928797 c -0.1475,0.293522 -0.3583,0.522277 -0.6339,0.684886 -0.2756,0.162606 -0.5995,0.243911 -0.9729,0.243911 -0.7331,0 -1.3119,-0.234266 -1.7377,-0.702797 -0.4258,-0.469914 -0.6394,-1.079006 -0.6394,-1.82728 0,-0.777215 0.2094,-1.416625 0.6297,-1.918229 0.419,-0.501607 0.9908,-0.752408 1.7171,-0.752408 0.4244,0 0.7648,0.07855 1.0239,0.237021 0.2576,0.157096 0.4726,0.383096 0.6435,0.676617 v -0.420312 c 0.014,-0.129533 0.068,-0.23151 0.1598,-0.303166 0.092,-0.07166 0.1985,-0.107488 0.3184,-0.107488 0.1336,0 0.248,0.04272 0.3431,0.128157 0.096,0.08544 0.1447,0.205327 0.1447,0.359667 v 4.573711 c 0,0.756543 -0.2246,1.322917 -0.6725,1.699119 -0.4478,0.376206 -1.0569,0.564998 -1.8286,0.564998 -0.3721,0 -0.7166,-0.03859 -1.0308,-0.115756 m 2.1304,-3.256305 c 0.2674,-0.32246 0.3997,-0.789616 0.3997,-1.402842 0,-0.214976 -0.014,-0.414789 -0.043,-0.600826 -0.029,-0.183279 -0.078,-0.359668 -0.1488,-0.525033 -0.07,-0.16674 -0.1598,-0.307301 -0.2673,-0.424434 -0.1075,-0.115757 -0.2453,-0.208086 -0.4107,-0.276987 -0.1667,-0.0689 -0.3555,-0.103353 -0.5677,-0.103353 -0.2054,0 -0.3928,0.03447 -0.5623,0.103353 -0.1695,0.0689 -0.3114,0.16261 -0.4285,0.279743 -0.1158,0.118512 -0.2136,0.260448 -0.2922,0.423058 -0.078,0.165364 -0.1364,0.341753 -0.1722,0.529166 -0.036,0.188793 -0.054,0.388606 -0.054,0.600823 0,0.314195 0.041,0.595313 0.1227,0.839227 0.083,0.24529 0.1943,0.442351 0.3348,0.591178 0.1392,0.14883 0.2991,0.260449 0.4768,0.336243 0.1778,0.07441 0.3693,0.112998 0.5747,0.112998 0.4244,0 0.7703,-0.16123 1.0376,-0.482314"
       id="path610"
       style="stroke-width:0.352778" />
    <path
       fill-rule="nonzero"
       fill="#ffffff"
       fill-opacity="1"
       d="m 97.467657,44.584645 c -0.1199,-0.111619 -0.1791,-0.25769 -0.1791,-0.438214 0,-0.181903 0.059,-0.329353 0.1791,-0.442351 0.1199,-0.112999 0.277,-0.169499 0.4727,-0.169499 0.1915,0 0.3459,0.0565 0.4616,0.169499 0.1172,0.112998 0.175,0.260448 0.175,0.442351 0,0.180524 -0.059,0.326595 -0.1764,0.438214 -0.1185,0.110243 -0.2728,0.166744 -0.4657,0.166744 -0.1916,0 -0.3473,-0.0565 -0.4672,-0.166744 m 0.098,6.275588 c -0.099,-0.08819 -0.1488,-0.216351 -0.1488,-0.384475 V 46.39401 c 0,-0.16123 0.052,-0.286632 0.1571,-0.378961 0.1047,-0.09233 0.226,-0.139181 0.3666,-0.139181 0.1364,0 0.2563,0.04685 0.3596,0.139181 0.102,0.09233 0.1544,0.217731 0.1544,0.378961 v 4.081748 c 0,0.16123 -0.052,0.286632 -0.1571,0.380341 -0.1047,0.09233 -0.2274,0.137802 -0.3666,0.137802 -0.1447,0 -0.2659,-0.0441 -0.3652,-0.133668"
       id="path612"
       style="stroke-width:0.352778" />
    <path
       fill-rule="nonzero"
       fill="#ffffff"
       fill-opacity="1"
       d="m 100.61506,50.660416 c -0.2439,-0.263204 -0.3651,-0.650434 -0.3651,-1.160307 v -2.900772 h -0.595303 c -0.1227,0 -0.2164,-0.03168 -0.2825,-0.09508 -0.065,-0.06339 -0.096,-0.144695 -0.096,-0.243914 0,-0.09922 0.03,-0.179144 0.094,-0.241155 0.063,-0.06063 0.1571,-0.09233 0.2797,-0.09233 h 0.600903 l 0.1391,-1.422136 c 0.017,-0.129536 0.072,-0.23702 0.1668,-0.32246 0.094,-0.08682 0.2081,-0.129536 0.3417,-0.129536 0.113,0 0.2067,0.03447 0.2798,0.103353 0.073,0.06753 0.1102,0.169499 0.1102,0.30317 v 1.467609 h 0.9192 c 0.1226,0 0.215,0.03306 0.277,0.09784 0.061,0.06477 0.092,0.147447 0.092,0.246665 0,0.09922 -0.032,0.179148 -0.092,0.238404 -0.062,0.06063 -0.1544,0.08957 -0.277,0.08957 h -0.9192 v 2.685796 c 0,0.327974 0.047,0.570509 0.1378,0.728984 0.092,0.157095 0.2439,0.235645 0.452,0.235645 h 0.051 l 0.3652,-0.02067 h 0.03 c 0.1268,0 0.2274,0.03997 0.3004,0.119892 0.074,0.0813 0.1103,0.175009 0.1103,0.281118 0,0.05375 -0.01,0.103353 -0.025,0.14745 -0.017,0.04548 -0.04,0.08268 -0.068,0.111623 -0.026,0.02893 -0.063,0.05374 -0.1102,0.07442 -0.046,0.02067 -0.091,0.0372 -0.1351,0.04823 -0.045,0.01242 -0.1006,0.02205 -0.1681,0.02893 -0.066,0.0069 -0.1268,0.01101 -0.1819,0.01242 -0.055,0.0014 -0.1199,0.0028 -0.1943,0.0028 h -0.2467 c -0.4175,0 -0.7482,-0.132292 -0.9908,-0.395496"
       id="path614"
       style="stroke-width:0.352778" />
    <path
       fill-rule="nonzero"
       fill="#ffffff"
       fill-opacity="1"
       d="m 103.84386,50.690734 c -0.3349,-0.256314 -0.503,-0.621496 -0.503,-1.092786 0,-0.202572 0.022,-0.37896 0.065,-0.531921 0.043,-0.151585 0.1019,-0.283877 0.1764,-0.395496 0.076,-0.110243 0.1832,-0.205331 0.3238,-0.282501 0.1406,-0.07579 0.2894,-0.139181 0.4492,-0.187413 0.1585,-0.04685 0.3638,-0.08406 0.616,-0.110243 0.2508,-0.0248 0.5044,-0.04272 0.7593,-0.05099 0.2563,-0.0083 0.5678,-0.01242 0.9371,-0.01242 v -0.502983 c 0,-0.691776 -0.3459,-1.037664 -1.0363,-1.037664 -0.2026,0 -0.4093,0.02342 -0.6215,0.07028 -0.2122,0.04547 -0.3721,0.08957 -0.4795,0.129536 -0.1089,0.04134 -0.2509,0.09922 -0.4286,0.17501 -0.041,0.01792 -0.084,0.02618 -0.1282,0.02618 -0.034,0 -0.068,-0.0055 -0.098,-0.01517 -0.032,-0.01101 -0.061,-0.02618 -0.088,-0.0441 -0.028,-0.0193 -0.051,-0.04134 -0.074,-0.06615 -0.022,-0.02618 -0.04,-0.05374 -0.056,-0.08268 -0.015,-0.02893 -0.026,-0.05925 -0.036,-0.09095 -0.01,-0.0303 -0.012,-0.06063 -0.012,-0.09233 0,-0.05788 0.014,-0.108864 0.041,-0.155716 0.027,-0.04686 0.07,-0.08406 0.1281,-0.115757 0.5306,-0.286632 1.1603,-0.431324 1.8893,-0.431324 0.6298,0 1.1259,0.147447 1.4897,0.442348 0.361,0.293522 0.5429,0.752408 0.5429,1.375283 v 2.895258 c 0,0.15434 -0.051,0.275607 -0.1543,0.362423 -0.102,0.08682 -0.2219,0.130915 -0.3583,0.130915 -0.09,0 -0.1709,-0.01792 -0.2439,-0.05375 -0.074,-0.03583 -0.1351,-0.09095 -0.1861,-0.163986 -0.048,-0.07442 -0.074,-0.162609 -0.074,-0.264583 v -0.380337 c -0.3031,0.625627 -0.8158,0.939821 -1.5337,0.939821 -0.5347,0 -0.9688,-0.128157 -1.305,-0.38585 m 2.3936,-0.753788 c 0.2825,-0.30868 0.4258,-0.700045 0.4258,-1.176845 v -0.143316 c -0.3293,0 -0.6035,0.0055 -0.8213,0.01379 -0.2191,0.0083 -0.423,0.0248 -0.6091,0.05099 -0.1874,0.0248 -0.3321,0.05925 -0.4382,0.09922 -0.1061,0.04134 -0.1984,0.09784 -0.2756,0.169495 -0.077,0.07304 -0.1295,0.157099 -0.1571,0.254939 -0.026,0.09784 -0.04,0.214976 -0.04,0.351398 0,0.288012 0.084,0.500229 0.2508,0.636655 0.1681,0.136426 0.3941,0.205327 0.678,0.205327 0.3734,0 0.7014,-0.15434 0.9866,-0.461641"
       id="path616"
       style="stroke-width:0.352778" />
    <path
       fill-rule="nonzero"
       fill="#ffffff"
       fill-opacity="1"
       d="m 109.25676,50.860233 c -0.099,-0.08819 -0.1488,-0.216351 -0.1488,-0.384475 v -6.319682 c 0,-0.157095 0.051,-0.282497 0.1543,-0.374826 0.102,-0.09233 0.2247,-0.137802 0.3638,-0.137802 0.1406,0 0.2619,0.04547 0.3652,0.137802 0.102,0.09233 0.1544,0.217731 0.1544,0.374826 v 6.319682 c 0,0.16123 -0.054,0.286632 -0.1599,0.378961 -0.1061,0.09371 -0.2287,0.139182 -0.3693,0.139182 -0.1406,0 -0.2605,-0.0441 -0.3597,-0.133668"
       id="path618"
       style="stroke-width:0.352778" />
    <path
       fill-rule="nonzero"
       fill="#ffffff"
       fill-opacity="1"
       d="m 115.19746,50.860233 c -0.1033,-0.08819 -0.1543,-0.213596 -0.1543,-0.374826 v -3.88607 h -0.6215 c -0.1226,0 -0.2163,-0.03168 -0.2797,-0.09508 -0.063,-0.06339 -0.095,-0.141936 -0.095,-0.2384 0,-0.09233 0.032,-0.172254 0.095,-0.2384 0.063,-0.06753 0.1571,-0.100598 0.2797,-0.100598 h 0.6215 v -0.62563 c 0,-1.150659 0.514,-1.725302 1.5448,-1.725302 h 0.6311 c 0.1103,0 0.1971,0.04134 0.2605,0.122646 0.062,0.08268 0.094,0.176389 0.094,0.282498 0,0.106108 -0.03,0.197058 -0.092,0.274228 -0.061,0.07855 -0.1489,0.115757 -0.2619,0.115757 h -0.4354 c -0.1406,0 -0.2508,0.01101 -0.3294,0.03447 -0.079,0.02205 -0.1488,0.07304 -0.2108,0.151585 -0.061,0.07717 -0.1034,0.191548 -0.1282,0.340375 -0.023,0.148829 -0.034,0.350022 -0.034,0.603581 v 0.425813 h 0.8158 c 0.1198,0 0.2108,0.03306 0.2714,0.100599 0.062,0.06614 0.092,0.146071 0.092,0.2384 0,0.09922 -0.03,0.179144 -0.09,0.241155 -0.061,0.06201 -0.1516,0.09233 -0.2742,0.09233 h -0.8158 v 3.886069 c 0,0.16123 -0.052,0.286632 -0.1558,0.374827 -0.1019,0.08957 -0.2232,0.133667 -0.3638,0.133667 -0.1405,0 -0.2618,-0.0441 -0.3638,-0.133667"
       id="path620"
       style="stroke-width:0.352778" />
    <path
       fill-rule="nonzero"
       fill="#ffffff"
       fill-opacity="1"
       d="m 118.64126,50.580491 c -0.3445,-0.329353 -0.5168,-0.825447 -0.5168,-1.485526 v -2.721624 c 0,-0.157099 0.052,-0.279742 0.1543,-0.366561 0.1034,-0.08819 0.2247,-0.130912 0.3652,-0.130912 0.1392,0 0.2605,0.04272 0.3611,0.130912 0.1019,0.08682 0.1516,0.209462 0.1516,0.366561 v 2.731269 c 0,0.414793 0.098,0.728983 0.2935,0.945335 0.1943,0.214976 0.4616,0.32246 0.8006,0.32246 0.3831,0 0.7083,-0.141937 0.9784,-0.425813 0.2674,-0.283874 0.4093,-0.662834 0.4231,-1.139638 v -2.433613 c 0,-0.157099 0.051,-0.279742 0.1543,-0.366561 0.102,-0.08819 0.226,-0.130912 0.3693,-0.130912 0.1406,0 0.2605,0.04272 0.3611,0.130912 0.102,0.08682 0.1516,0.209462 0.1516,0.366561 v 4.132735 c 0,0.15434 -0.051,0.274228 -0.153,0.359668 -0.1034,0.08544 -0.226,0.128157 -0.3707,0.128157 -0.1392,0 -0.2604,-0.04134 -0.361,-0.122643 -0.102,-0.08268 -0.1516,-0.197062 -0.1516,-0.344513 v -0.369312 c -0.1364,0.293522 -0.3528,0.520897 -0.6477,0.679372 -0.2935,0.159854 -0.6353,0.23978 -1.0266,0.23978 -0.5471,0 -0.9922,-0.165365 -1.3367,-0.496094 m 0.2921,-5.683031 c -0.1102,-0.107484 -0.1667,-0.2384 -0.1667,-0.392741 0,-0.150205 0.055,-0.279742 0.164,-0.387226 0.1102,-0.107488 0.2535,-0.161234 0.4313,-0.161234 0.175,0 0.3169,0.05375 0.4299,0.161234 0.1103,0.107484 0.1668,0.237021 0.1668,0.387226 0,0.151586 -0.057,0.281122 -0.1668,0.389986 -0.113,0.110243 -0.2549,0.163985 -0.4299,0.163985 -0.1737,0 -0.317,-0.05374 -0.4286,-0.16123 m 2.0533,0 c -0.1103,-0.107484 -0.1668,-0.2384 -0.1668,-0.392741 0,-0.146071 0.055,-0.275607 0.1654,-0.384471 0.1089,-0.110243 0.2522,-0.163989 0.43,-0.163989 0.175,0 0.3183,0.05375 0.4299,0.161234 0.1102,0.107484 0.1667,0.237021 0.1667,0.387226 0,0.151586 -0.056,0.281122 -0.1667,0.389986 -0.1116,0.110243 -0.2549,0.163985 -0.4299,0.163985 -0.1737,0 -0.317,-0.05374 -0.4286,-0.16123"
       id="path622"
       style="stroke-width:0.352778" />
    <path
       fill-rule="nonzero"
       fill="#ffffff"
       fill-opacity="1"
       d="m 124.26366,50.868499 c -0.099,-0.08406 -0.1489,-0.203948 -0.1489,-0.362423 v -4.147894 c 0,-0.150206 0.052,-0.267338 0.1571,-0.351402 0.1048,-0.08406 0.226,-0.126778 0.3666,-0.126778 0.055,0 0.1075,0.0069 0.1571,0.0193 0.05,0.01101 0.095,0.0303 0.1392,0.0565 0.043,0.0248 0.08,0.05512 0.1116,0.08957 0.033,0.03447 0.058,0.07579 0.078,0.125401 0.018,0.04961 0.028,0.103354 0.028,0.16123 l -0.011,0.63252 c 0.085,-0.318329 0.2591,-0.585667 0.5209,-0.800639 0.2632,-0.216352 0.5664,-0.32384 0.9122,-0.32384 0.1227,0 0.2191,0.0441 0.2867,0.133668 0.069,0.08819 0.1033,0.194306 0.1033,0.316949 0,0.114378 -0.03,0.210842 -0.092,0.293522 -0.062,0.08268 -0.1488,0.122647 -0.2618,0.122647 -0.4562,0 -0.8131,0.107488 -1.0708,0.318325 -0.259,0.213597 -0.3872,0.536057 -0.3872,0.970139 v 2.510787 c 0,0.15434 -0.054,0.274228 -0.1598,0.359667 -0.1062,0.08544 -0.2288,0.128157 -0.3694,0.128157 -0.1405,0 -0.2604,-0.04272 -0.3596,-0.125402"
       id="path624"
       style="stroke-width:0.352778" />
    <path
       fill-rule="nonzero"
       fill="#ffffff"
       fill-opacity="1"
       d="m 130.98986,50.690734 c -0.3363,-0.256314 -0.5044,-0.621496 -0.5044,-1.092786 0,-0.202572 0.022,-0.37896 0.065,-0.531921 0.043,-0.151585 0.1019,-0.283877 0.1777,-0.395496 0.074,-0.110243 0.1819,-0.205331 0.3225,-0.282501 0.1406,-0.07579 0.2908,-0.139181 0.4492,-0.187413 0.1599,-0.04685 0.3652,-0.08406 0.616,-0.110243 0.2522,-0.0248 0.5058,-0.04272 0.7607,-0.05099 0.2549,-0.0083 0.5664,-0.01242 0.9371,-0.01242 v -0.502983 c 0,-0.691776 -0.3459,-1.037664 -1.0377,-1.037664 -0.2012,0 -0.4093,0.02342 -0.6201,0.07028 -0.2136,0.04547 -0.3721,0.08957 -0.481,0.129536 -0.1074,0.04134 -0.2508,0.09922 -0.4285,0.17501 -0.041,0.01792 -0.084,0.02618 -0.1282,0.02618 -0.034,0 -0.068,-0.0055 -0.098,-0.01517 -0.03,-0.01101 -0.059,-0.02618 -0.087,-0.0441 -0.028,-0.0193 -0.052,-0.04134 -0.074,-0.06615 -0.023,-0.02618 -0.041,-0.05374 -0.056,-0.08268 -0.015,-0.02893 -0.028,-0.05925 -0.036,-0.09095 -0.01,-0.0303 -0.014,-0.06063 -0.014,-0.09233 0,-0.05788 0.014,-0.108864 0.041,-0.155716 0.027,-0.04686 0.07,-0.08406 0.1281,-0.115757 0.5306,-0.286632 1.1603,-0.431324 1.8893,-0.431324 0.6298,0 1.1259,0.147447 1.4897,0.442348 0.3624,0.293522 0.5443,0.752408 0.5443,1.375283 v 2.895258 c 0,0.15434 -0.052,0.275607 -0.1557,0.362423 -0.102,0.08682 -0.2219,0.130915 -0.3583,0.130915 -0.09,0 -0.1709,-0.01792 -0.2439,-0.05375 -0.074,-0.03583 -0.1351,-0.09095 -0.1847,-0.163986 -0.05,-0.07442 -0.074,-0.162609 -0.074,-0.264583 v -0.380337 c -0.3045,0.625627 -0.8172,0.939821 -1.5351,0.939821 -0.5333,0 -0.9688,-0.128157 -1.3036,-0.38585 m 2.3922,-0.753788 c 0.2839,-0.30868 0.4258,-0.700045 0.4258,-1.176845 v -0.143316 c -0.3279,0 -0.6022,0.0055 -0.8213,0.01379 -0.2191,0.0083 -0.4216,0.0248 -0.6091,0.05099 -0.186,0.0248 -0.3321,0.05925 -0.4382,0.09922 -0.1061,0.04134 -0.1984,0.09784 -0.2756,0.169495 -0.076,0.07304 -0.1281,0.157099 -0.1557,0.254939 -0.028,0.09784 -0.041,0.214976 -0.041,0.351398 0,0.288012 0.084,0.500229 0.2508,0.636655 0.1681,0.136426 0.3941,0.205327 0.678,0.205327 0.3734,0 0.7028,-0.15434 0.9866,-0.461641"
       id="path626"
       style="stroke-width:0.352778" />
    <path
       fill-rule="nonzero"
       fill="#ffffff"
       fill-opacity="1"
       d="m 136.40276,50.860233 c -0.099,-0.08819 -0.1488,-0.216351 -0.1488,-0.384475 v -6.319682 c 0,-0.157095 0.051,-0.282497 0.1529,-0.374826 0.1034,-0.09233 0.2247,-0.137802 0.3652,-0.137802 0.1406,0 0.2618,0.04547 0.3638,0.137802 0.1034,0.09233 0.1544,0.217731 0.1544,0.374826 v 6.319682 c 0,0.16123 -0.054,0.286632 -0.1599,0.378961 -0.1047,0.09371 -0.2288,0.139182 -0.3693,0.139182 -0.1406,0 -0.2605,-0.0441 -0.3583,-0.133668"
       id="path628"
       style="stroke-width:0.352778" />
    <path
       fill-rule="nonzero"
       fill="#ffffff"
       fill-opacity="1"
       d="m 138.88046,50.860233 c -0.099,-0.08819 -0.1488,-0.216351 -0.1488,-0.384475 v -6.319682 c 0,-0.157095 0.051,-0.282497 0.1529,-0.374826 0.1034,-0.09233 0.2247,-0.137802 0.3652,-0.137802 0.1406,0 0.2619,0.04547 0.3638,0.137802 0.1034,0.09233 0.1544,0.217731 0.1544,0.374826 v 6.319682 c 0,0.16123 -0.052,0.286632 -0.1585,0.378961 -0.1061,0.09371 -0.2301,0.139182 -0.3707,0.139182 -0.1392,0 -0.2591,-0.0441 -0.3583,-0.133668"
       id="path630"
       style="stroke-width:0.352778" />
    <path
       fill-rule="nonzero"
       fill="#ffffff"
       fill-opacity="1"
       d="m 141.61586,50.348981 c -0.4782,-0.476801 -0.7166,-1.125859 -0.7166,-1.947168 0,-0.348643 0.057,-0.679372 0.1668,-0.990812 0.1116,-0.311435 0.2701,-0.588422 0.4754,-0.829578 0.2053,-0.241155 0.4658,-0.432703 0.7827,-0.574643 0.317,-0.141936 0.6684,-0.213593 1.0542,-0.213593 0.3941,0 0.7428,0.06752 1.046,0.201193 0.3017,0.133668 0.5443,0.31557 0.7234,0.54846 0.1792,0.232886 0.317,0.493335 0.4107,0.782726 0.094,0.289387 0.1447,0.606337 0.1516,0.94809 0,0.112998 -0.028,0.205327 -0.083,0.276983 -0.054,0.07166 -0.1364,0.107488 -0.2453,0.107488 h -3.441 c 0.014,0.56775 0.1668,0.990808 0.4575,1.267795 0.2908,0.278363 0.6725,0.420303 1.1452,0.425814 0.2811,0 0.5374,-0.05099 0.7703,-0.15572 0.2329,-0.104729 0.4699,-0.24529 0.7125,-0.424434 0.034,-0.02342 0.069,-0.04134 0.1006,-0.05374 0.033,-0.01101 0.066,-0.01792 0.1006,-0.01792 0.058,0 0.1116,0.01654 0.1612,0.04961 0.05,0.03168 0.088,0.07579 0.1185,0.130912 0.029,0.05512 0.044,0.113002 0.044,0.173634 0,0.05926 -0.014,0.115757 -0.039,0.170879 -0.026,0.05374 -0.068,0.103349 -0.1213,0.147447 -0.5305,0.469914 -1.1699,0.704179 -1.9196,0.704179 -0.7606,-0.0069 -1.3794,-0.249424 -1.8562,-0.727604 m 3.2012,-2.317859 c -0.032,-0.443731 -0.1612,-0.811668 -0.39,-1.101055 -0.2301,-0.289387 -0.5636,-0.434082 -1.0018,-0.434082 -0.226,0 -0.4313,0.0441 -0.616,0.132291 -0.1847,0.08682 -0.3362,0.205328 -0.4548,0.354157 -0.1171,0.148827 -0.2094,0.311436 -0.2769,0.489204 -0.066,0.179144 -0.1075,0.365178 -0.1254,0.559485 z m 0,0"
       id="path632"
       style="stroke-width:0.352778" />
  </g>
</svg>
