<?xml version="1.0" encoding="UTF-8" standalone="no"?>
<!-- Created with Inkscape (http://www.inkscape.org/) -->

<svg
   width="18.42713mm"
   height="14.16073mm"
   viewBox="0 0 18.42713 14.16073"
   version="1.1"
   id="svg1927"
   inkscape:version="1.2.1 (9c6d41e410, 2022-07-14, custom)"
   sodipodi:docname="denktmit-key-visual-red.svg"
   xmlns:inkscape="http://www.inkscape.org/namespaces/inkscape"
   xmlns:sodipodi="http://sodipodi.sourceforge.net/DTD/sodipodi-0.dtd"
   xmlns="http://www.w3.org/2000/svg"
   xmlns:svg="http://www.w3.org/2000/svg">
  <sodipodi:namedview
     id="namedview1929"
     pagecolor="#ffffff"
     bordercolor="#999999"
     borderopacity="1"
     inkscape:showpageshadow="0"
     inkscape:pageopacity="0"
     inkscape:pagecheckerboard="0"
     inkscape:deskcolor="#d1d1d1"
     inkscape:document-units="mm"
     showgrid="false"
     inkscape:zoom="0.2102413"
     inkscape:cx="1186.7316"
     inkscape:cy="23.782197"
     inkscape:window-width="2718"
     inkscape:window-height="1217"
     inkscape:window-x="2402"
     inkscape:window-y="156"
     inkscape:window-maximized="0"
     inkscape:current-layer="layer1" />
  <defs
     id="defs1924" />
  <g
     inkscape:label="Ebene 1"
     inkscape:groupmode="layer"
     id="layer1"
     transform="translate(147.64577,395.94901)">
    <path
       fill-rule="nonzero"
       fill="#ff73e6"
       fill-opacity="1"
       d="m -141.30404,-382.37119 c -0.26458,-0.38723 -0.39687,-0.86266 -0.39687,-1.4249 v -10.13547 c 0,-1.34496 0.64078,-2.01745 1.92098,-2.01745 h 2.70371 c 2.58658,0 4.54202,0.6091 5.86907,1.82728 1.32567,1.21681 1.98851,2.99448 1.98851,5.33163 0,2.27928 -0.65457,4.01561 -1.96508,5.21037 -1.30914,1.19476 -3.19154,1.79145 -5.6472,1.79145 h -3.31143 c -0.50988,0 -0.8971,-0.19431 -1.16169,-0.58291 m 4.46347,-1.67846 c 1.59301,0 2.71611,-0.36793 3.3693,-1.10243 0.65319,-0.73449 0.97979,-1.96921 0.97979,-3.70692 0,-1.18787 -0.15848,-2.13458 -0.47405,-2.83875 -0.31833,-0.70556 -0.79375,-1.2113 -1.43178,-1.5186 -0.63665,-0.30731 -1.48001,-0.46027 -2.53283,-0.46027 h -1.65503 v 9.62697 z m 0,0"
       id="path1166"
       style="stroke-width:0.352778" />
    <path
       fill-rule="nonzero"
       fill="#ff73e6"
       fill-opacity="1"
       d="m -147.64577,-382.45663 c 0,-0.04 0.004,-0.0786 0.01,-0.11851 l 0.82407,-4.85759 c 0.0579,-0.35278 0.29628,-0.53468 0.7152,-0.54846 h 1.64538 c 0.24116,0.0207 0.36242,0.1447 0.36242,0.37207 0,0.0661 -0.01,0.12541 -0.0289,0.17639 l -1.72531,4.85759 c -0.0579,0.1502 -0.12678,0.25769 -0.20533,0.32384 -0.0786,0.0648 -0.18328,0.0978 -0.31281,0.0978 h -1.03904 c -0.16399,-0.007 -0.24529,-0.10749 -0.24529,-0.30317 m 1.03352,-9.60769 c -0.28938,-0.28111 -0.43545,-0.63665 -0.43545,-1.06797 0,-0.39137 0.14193,-0.73174 0.42581,-1.02251 0.28388,-0.29076 0.64492,-0.43546 1.08314,-0.43546 0.41754,0 0.77583,0.13918 1.07349,0.4203 0.29628,0.28112 0.44511,0.62701 0.44511,1.03767 0,0.41892 -0.14194,0.7717 -0.42582,1.05833 -0.28387,0.28801 -0.64906,0.43133 -1.09278,0.43133 -0.42444,0 -0.78273,-0.14056 -1.0735,-0.42169"
       id="path1168"
       style="stroke-width:0.352778" />
  </g>
</svg>
