<?xml version="1.0" encoding="UTF-8" standalone="no"?>
<!-- Created with Inkscape (http://www.inkscape.org/) -->

<svg
   width="106.3712mm"
   height="17.053221mm"
   viewBox="0 0 106.3712 17.053221"
   version="1.1"
   id="svg1754"
   inkscape:version="1.2.1 (9c6d41e410, 2022-07-14, custom)"
   sodipodi:docname="denktmit-logo-blue-transparent-highlighted.svg"
   xmlns:inkscape="http://www.inkscape.org/namespaces/inkscape"
   xmlns:sodipodi="http://sodipodi.sourceforge.net/DTD/sodipodi-0.dtd"
   xmlns="http://www.w3.org/2000/svg"
   xmlns:svg="http://www.w3.org/2000/svg">
  <sodipodi:namedview
     id="namedview1756"
     pagecolor="#ffffff"
     bordercolor="#999999"
     borderopacity="1"
     inkscape:showpageshadow="0"
     inkscape:pageopacity="0"
     inkscape:pagecheckerboard="0"
     inkscape:deskcolor="#d1d1d1"
     inkscape:document-units="mm"
     showgrid="false"
     inkscape:zoom="2.3051186"
     inkscape:cx="-33.187013"
     inkscape:cy="10.411612"
     inkscape:window-width="3476"
     inkscape:window-height="1077"
     inkscape:window-x="1122"
     inkscape:window-y="188"
     inkscape:window-maximized="0"
     inkscape:current-layer="layer1" />
  <defs
     id="defs1751">
    <clipPath
       id="clip-0">
      <path
         clip-rule="nonzero"
         d="M 0,70 H 841.89062 V 595.27734 H 0 Z m 0,0"
         id="path239" />
    </clipPath>
  </defs>
  <g
     inkscape:label="Ebene 1"
     inkscape:groupmode="layer"
     id="layer1"
     transform="translate(-39.164257,-23.226432)">
    <path
       fill-rule="nonzero"
       fill="#ffffff"
       fill-opacity="1"
       d="m 46.484357,39.470742 c -0.3059,-0.44786 -0.4589,-0.99632 -0.4589,-1.64537 v -11.70368 c 0,-1.55305 0.7387,-2.33026 2.2173,-2.33026 h 3.1199 c 2.9862,0 5.2434,0.70417 6.7744,2.10977 1.5296,1.4056 2.2958,3.45888 2.2958,6.15708 0,2.63067 -0.7565,4.63572 -2.2682,6.01651 -1.5117,1.37942 -3.6849,2.06844 -6.5181,2.06844 h -3.8227 c -0.5884,0 -1.0349,-0.22324 -1.3395,-0.67249 m 5.1498,-1.93889 c 1.8396,0 3.1364,-0.42444 3.8902,-1.27193 0.7537,-0.84888 1.1313,-2.27515 1.1313,-4.28019 0,-1.37253 -0.1832,-2.46531 -0.5484,-3.27973 -0.3666,-0.81442 -0.9164,-1.39871 -1.6523,-1.75287 -0.7345,-0.35415 -1.7088,-0.53192 -2.9228,-0.53192 h -1.91 v 11.11664 z m 0,0"
       id="path574"
       style="fill:#1a69e9;fill-opacity:1;stroke-width:0.352778" />
    <path
       fill-rule="nonzero"
       fill="#ffffff"
       fill-opacity="1"
       d="m 63.966157,38.719712 c -1.0969,-1.03352 -1.6454,-2.48047 -1.6454,-4.34357 0,-1.05558 0.2288,-2.01607 0.6849,-2.88286 0.4562,-0.86678 1.1245,-1.56269 2.0065,-2.08635 0.8819,-0.52365 1.8961,-0.78548 3.0413,-0.78548 0.8971,0 1.6895,0.14607 2.3757,0.44097 0.6849,0.29353 1.232,0.69729 1.6385,1.20992 0.4079,0.51263 0.7152,1.08865 0.9219,1.72944 0.2081,0.64078 0.3156,1.33807 0.3225,2.09186 0,0.30179 -0.081,0.53881 -0.2426,0.71244 -0.1626,0.17364 -0.3982,0.26046 -0.7069,0.26046 h -6.8985 c 0.098,2.02709 1.1424,3.04133 3.1323,3.04133 0.9812,0 1.9596,-0.37208 2.9408,-1.11897 0.135,-0.113 0.2866,-0.1695 0.452,-0.1695 0.1281,0 0.2549,0.0331 0.3789,0.10197 0.124,0.0675 0.2315,0.15435 0.3225,0.25907 0.091,0.10611 0.164,0.22876 0.2205,0.36794 0.057,0.13918 0.084,0.27699 0.084,0.41341 0,0.0372 0,0.0717 -0.01,0.1006 0,0.0303 -0.01,0.062 -0.011,0.0965 0,0.0345 -0.011,0.0662 -0.022,0.0965 -0.011,0.0303 -0.025,0.0606 -0.04,0.0909 -0.015,0.0289 -0.03,0.0593 -0.045,0.0896 -0.015,0.0303 -0.033,0.0606 -0.056,0.0909 -0.022,0.0303 -0.047,0.0606 -0.073,0.091 -0.028,0.0303 -0.055,0.0551 -0.085,0.0785 -1.1838,1.05558 -2.6417,1.58336 -4.3767,1.58336 -1.779,-0.008 -3.2163,-0.52778 -4.3132,-1.55994 m 6.6889,-5.27099 c -0.1364,-1.92925 -0.9797,-2.89388 -2.5328,-2.89388 -0.7992,0 -1.4249,0.27836 -1.8783,0.83647 -0.4519,0.5581 -0.7041,1.24437 -0.7579,2.05741 z m 0,0"
       id="path576"
       style="fill:#1a69e9;fill-opacity:0.38932124;stroke-width:0.352778" />
    <path
       fill-rule="nonzero"
       fill="#ffffff"
       fill-opacity="1"
       d="m 75.895857,39.669182 c -0.2632,-0.31695 -0.3955,-0.77308 -0.3955,-1.36839 v -7.90443 c 0,-0.52779 0.1392,-0.92742 0.4189,-1.19889 0.2784,-0.27147 0.6711,-0.40652 1.1755,-0.40652 0.4906,0 0.8695,0.13505 1.1369,0.40652 0.2673,0.27147 0.401,0.66697 0.401,1.18649 v 0.27285 c 0.6794,-1.36425 1.9568,-2.04776 3.8337,-2.04776 1.1382,0 2.0794,0.3762 2.8222,1.12585 0.7414,0.74966 1.1135,1.82177 1.1135,3.21635 v 5.34954 c 0,0.59531 -0.1406,1.05144 -0.419,1.36839 -0.2783,0.31557 -0.678,0.47405 -1.1989,0.47405 -0.4892,0 -0.8667,-0.15848 -1.1299,-0.47405 -0.2646,-0.31695 -0.3955,-0.77308 -0.3955,-1.36839 v -5.32612 c 0,-0.73863 -0.1916,-1.30638 -0.5719,-1.70187 -0.3804,-0.3955 -0.8654,-0.59394 -1.4525,-0.59394 -0.7097,0 -1.3174,0.27837 -1.8259,0.83647 -0.5099,0.55811 -0.7648,1.27744 -0.7648,2.15939 v 4.62607 c 0,0.59531 -0.1392,1.05144 -0.4175,1.36839 -0.2798,0.31557 -0.678,0.47405 -1.1989,0.47405 -0.4906,0 -0.8668,-0.15848 -1.1314,-0.47405"
       id="path578"
       style="fill:#1a69e9;fill-opacity:0.38932124;stroke-width:0.352778" />
    <path
       fill-rule="nonzero"
       fill="#ffffff"
       fill-opacity="1"
       d="m 89.513657,39.663672 c -0.2591,-0.32108 -0.39,-0.78272 -0.39,-1.38631 v -12.61869 c 0,-0.60358 0.1337,-1.06522 0.401,-1.38631 0.2687,-0.3197 0.6463,-0.47956 1.1369,-0.47956 0.5126,0 0.9081,0.15986 1.1878,0.47956 0.2784,0.32109 0.4176,0.78273 0.4176,1.38631 v 8.03947 l 4.4676,-4.61367 c 0.074,-0.0827 0.1516,-0.15434 0.2315,-0.21497 0.08,-0.0606 0.1585,-0.10749 0.237,-0.14194 0.08,-0.0331 0.1613,-0.0593 0.2426,-0.0786 0.084,-0.0193 0.1626,-0.0289 0.2384,-0.0289 0.091,0 0.1791,0.01 0.2659,0.0289 0.087,0.0193 0.1695,0.0469 0.2481,0.0854 0.08,0.0372 0.1543,0.0827 0.2273,0.13505 0.072,0.0524 0.1365,0.11162 0.1971,0.17501 0.061,0.0648 0.1171,0.13642 0.1695,0.21497 0.052,0.0799 0.096,0.15848 0.1309,0.2384 0.033,0.0785 0.059,0.16261 0.079,0.25356 0.018,0.091 0.027,0.18053 0.027,0.27147 0,0.32384 -0.1199,0.61461 -0.361,0.87092 l -3.1447,3.14331 3.6077,3.87918 c 0.2412,0.27147 0.3624,0.56086 0.3624,0.87092 0,0.36104 -0.1488,0.67799 -0.4465,0.94947 -0.2976,0.27147 -0.6435,0.40652 -1.0349,0.40652 -0.098,0 -0.197,-0.01 -0.2935,-0.0275 -0.098,-0.0193 -0.1943,-0.051 -0.2894,-0.0965 -0.094,-0.0455 -0.1888,-0.10335 -0.2825,-0.17501 -0.094,-0.0717 -0.1819,-0.1571 -0.2659,-0.25494 l -4.6137,-5.13319 v 3.8213 c 0,0.60358 -0.1406,1.06522 -0.4231,1.38631 -0.2838,0.3197 -0.6849,0.47955 -1.2044,0.47955 -0.4906,0 -0.8654,-0.15985 -1.1258,-0.47955"
       id="path580"
       style="fill:#1a69e9;fill-opacity:0.38932124;stroke-width:0.352778" />
    <path
       fill-rule="nonzero"
       fill="#ffffff"
       fill-opacity="1"
       d="m 103.26506,39.290222 c -0.5953,-0.63665 -0.8943,-1.5999 -0.8943,-2.88974 v -5.49562 h -0.9385 c -0.7386,0 -1.1079,-0.36105 -1.1079,-1.08589 0,-0.30868 0.09,-0.55398 0.2659,-0.7345 0.1764,-0.18052 0.4465,-0.27147 0.809,-0.27147 h 1.0969 l 0.3045,-2.61276 c 0.1213,-1.08452 0.6298,-1.62747 1.5269,-1.62747 0.7992,0 1.1989,0.54571 1.1989,1.63987 v 2.60036 h 1.6398 c 0.7084,0 1.0625,0.35415 1.0625,1.06246 0,0.68627 -0.3652,1.0294 -1.0969,1.0294 h -1.6054 v 4.76112 c 0,0.79926 0.096,1.37804 0.288,1.73495 0.1929,0.35829 0.5333,0.53744 1.0239,0.53744 h 0.135 l 0.7469,-0.0331 h 0.067 c 0.3018,0 0.5388,0.10886 0.7125,0.32797 0.1736,0.21774 0.2604,0.47405 0.2604,0.76757 0,0.17364 -0.029,0.3266 -0.085,0.45889 -0.057,0.13229 -0.1268,0.24115 -0.2095,0.32797 -0.083,0.0868 -0.1998,0.15985 -0.35,0.22049 -0.1516,0.0606 -0.2921,0.10749 -0.4244,0.14056 -0.1323,0.0345 -0.3073,0.0592 -0.5251,0.0744 -0.2191,0.0152 -0.4051,0.0248 -0.5608,0.0275 -0.153,0.004 -0.3597,0.007 -0.616,0.007 h -0.237 c -1.0625,-0.008 -1.8921,-0.33073 -2.4874,-0.96738"
       id="path582"
       style="fill:#1a69e9;fill-opacity:0.38932124;stroke-width:0.352778" />
    <path
       fill-rule="nonzero"
       fill="#ffffff"
       fill-opacity="1"
       d="m 118.71706,39.029772 c -0.328,-0.29765 -0.6133,-0.7593 -0.8544,-1.38493 l -3.9922,-9.81576 v 10.93473 c 0,0.43822 -0.1543,0.77721 -0.463,1.01837 -0.3087,0.24116 -0.678,0.36105 -1.108,0.36105 -0.4299,0 -0.8034,-0.12265 -1.1189,-0.36656 -0.317,-0.24529 -0.4755,-0.58291 -0.4755,-1.01286 l -0.012,-12.2921 c 0,-0.69315 0.266,-1.26366 0.7979,-1.7129 0.5319,-0.44786 1.1548,-0.67248 1.8714,-0.67248 0.3927,0 0.7662,0.0717 1.1203,0.21497 0.3542,0.14332 0.6932,0.38172 1.017,0.71796 0.3239,0.33624 0.5816,0.75241 0.769,1.24988 l 3.6862,8.96689 3.6863,-8.96689 c 0.2797,-0.73174 0.6807,-1.27882 1.2044,-1.63987 0.525,-0.36242 1.0886,-0.54294 1.6908,-0.54294 0.7166,0 1.3409,0.22462 1.8714,0.67248 0.5319,0.44924 0.7979,1.01975 0.7979,1.7129 v 12.2921 c 0,0.42995 -0.1585,0.76757 -0.4754,1.01286 -0.317,0.24391 -0.6891,0.36656 -1.119,0.36656 -0.4299,0 -0.802,-0.11989 -1.1135,-0.36105 -0.3141,-0.24116 -0.4699,-0.58015 -0.4699,-1.01837 l 0.011,-10.93473 -3.9921,9.81576 c -0.2412,0.61874 -0.5251,1.07763 -0.853,1.37942 -0.328,0.30179 -0.74,0.452 -1.2389,0.452 -0.4975,0 -0.9095,-0.14883 -1.2375,-0.44649"
       id="path584"
       style="fill:#1a69e9;fill-opacity:0.38932124;stroke-width:0.352778" />
    <path
       fill-rule="nonzero"
       fill="#ffffff"
       fill-opacity="1"
       d="m 132.72066,26.065192 c -0.3239,-0.30179 -0.4865,-0.69729 -0.4865,-1.18787 0,-0.4892 0.164,-0.88746 0.492,-1.192 0.328,-0.30593 0.7593,-0.45889 1.2953,-0.45889 0.5278,0 0.955,0.15296 1.283,0.45889 0.328,0.30454 0.492,0.7028 0.492,1.192 0,0.49058 -0.164,0.88608 -0.492,1.18787 -0.328,0.30179 -0.7593,0.452 -1.294,0.452 -0.536,0 -0.966,-0.15021 -1.2898,-0.452 m 0.1254,13.60399 c -0.2729,-0.31695 -0.4079,-0.77997 -0.4079,-1.39182 v -7.62193 c 0,-0.6022 0.1337,-1.06384 0.401,-1.38492 0.2673,-0.31971 0.6463,-0.47956 1.1369,-0.47956 0.5126,0 0.9095,0.15985 1.1934,0.47956 0.2825,0.32108 0.423,0.78272 0.423,1.38492 v 7.62193 c 0,0.60359 -0.1337,1.06523 -0.401,1.38631 -0.2673,0.31971 -0.6587,0.47956 -1.17,0.47956 -0.5126,0 -0.9053,-0.1571 -1.1754,-0.47405"
       id="path586"
       style="fill:#1a69e9;fill-opacity:0.38932124;stroke-width:0.352778" />
    <path
       fill-rule="nonzero"
       fill="#ffffff"
       fill-opacity="1"
       d="m 140.03936,39.290222 c -0.5953,-0.63665 -0.8929,-1.5999 -0.8929,-2.88974 v -5.49562 h -0.9398 c -0.7373,0 -1.1066,-0.36105 -1.1066,-1.08589 0,-0.30868 0.088,-0.55398 0.2646,-0.7345 0.1777,-0.18052 0.4465,-0.27147 0.8089,-0.27147 h 1.0969 l 0.3045,-2.61276 c 0.1213,-1.08452 0.6298,-1.62747 1.5269,-1.62747 0.7993,0 1.1989,0.54571 1.1989,1.63987 v 2.60036 h 1.6399 c 0.7083,0 1.0624,0.35415 1.0624,1.06246 0,0.68627 -0.3651,1.0294 -1.0969,1.0294 h -1.6054 v 4.76112 c 0,0.79926 0.097,1.37804 0.288,1.73495 0.1929,0.35829 0.5333,0.53744 1.0239,0.53744 h 0.135 l 0.7469,-0.0331 h 0.068 c 0.3018,0 0.5388,0.10886 0.7124,0.32797 0.1736,0.21774 0.2605,0.47405 0.2605,0.76757 0,0.17364 -0.029,0.3266 -0.085,0.45889 -0.057,0.13229 -0.1254,0.24115 -0.2094,0.32797 -0.083,0.0868 -0.1985,0.15985 -0.3501,0.22049 -0.1516,0.0606 -0.2921,0.10749 -0.423,0.14056 -0.1323,0.0345 -0.3087,0.0592 -0.5264,0.0744 -0.2191,0.0152 -0.4052,0.0248 -0.5595,0.0275 -0.1544,0.004 -0.3611,0.007 -0.616,0.007 h -0.2384 c -1.0625,-0.008 -1.892,-0.33073 -2.4874,-0.96738"
       id="path588"
       style="fill:#1a69e9;fill-opacity:0.38932124;stroke-width:0.352778" />
    <path
       fill-rule="nonzero"
       fill="#ffffff"
       fill-opacity="1"
       d="m 39.164257,39.371532 c 0,-0.0469 0,-0.091 0.012,-0.13643 l 0.9495,-5.60862 c 0.067,-0.4079 0.3431,-0.61873 0.8254,-0.63389 h 1.9003 c 0.2784,0.0234 0.4176,0.16674 0.4176,0.42995 0,0.0758 -0.011,0.14331 -0.034,0.20394 l -1.9899,5.60862 c -0.068,0.17363 -0.146,0.29766 -0.237,0.37345 -0.09,0.0744 -0.2108,0.113 -0.361,0.113 h -1.1989 c -0.1888,-0.008 -0.2839,-0.12402 -0.2839,-0.35002 m 1.1934,-11.09321 c -0.3349,-0.32522 -0.503,-0.73587 -0.503,-1.23335 0,-0.45199 0.164,-0.84611 0.4919,-1.18097 0.328,-0.33625 0.7442,-0.50437 1.2499,-0.50437 0.4823,0 0.8944,0.16261 1.2375,0.48645 0.3431,0.32384 0.5154,0.72347 0.5154,1.19889 0,0.48232 -0.164,0.88884 -0.492,1.22095 -0.3279,0.3321 -0.7482,0.49747 -1.2609,0.49747 -0.4906,0 -0.904,-0.16123 -1.2388,-0.48507"
       id="path590"
       style="fill:#1a69e9;fill-opacity:1;stroke-width:0.352778" />
  </g>
</svg>
